<mxfile host="app.diagrams.net" agent="Mozilla/5.0 (Windows NT 10.0; Win64; x64) AppleWebKit/537.36 (KHTML, like Gecko) Chrome/129.0.0.0 Safari/537.36 Edg/129.0.0.0" version="24.7.16" pages="3">
  <diagram id="leluMIREDVRrOhBq61Ul" name="DataModel">
    <mxGraphModel dx="2111" dy="2173" grid="1" gridSize="10" guides="1" tooltips="1" connect="1" arrows="1" fold="1" page="1" pageScale="1" pageWidth="827" pageHeight="1169" math="0" shadow="0">
      <root>
        <mxCell id="0" />
        <mxCell id="1" parent="0" />
        <mxCell id="EDuE6eJ9k3U34vcv7kun-1" value="" style="edgeStyle=entityRelationEdgeStyle;fontSize=12;html=1;endArrow=ERmany;rounded=0;entryX=0;entryY=1;entryDx=0;entryDy=0;exitX=1.006;exitY=0.239;exitDx=0;exitDy=0;exitPerimeter=0;entryPerimeter=0;" edge="1" parent="1" source="EDuE6eJ9k3U34vcv7kun-13" target="EDuE6eJ9k3U34vcv7kun-101">
          <mxGeometry width="100" height="100" relative="1" as="geometry">
            <mxPoint x="745" y="140" as="sourcePoint" />
            <mxPoint x="879" y="-2.5" as="targetPoint" />
          </mxGeometry>
        </mxCell>
        <mxCell id="EDuE6eJ9k3U34vcv7kun-2" value="" style="edgeStyle=entityRelationEdgeStyle;fontSize=12;html=1;endArrow=ERmany;rounded=0;exitX=-0.009;exitY=0.146;exitDx=0;exitDy=0;entryX=1;entryY=0.5;entryDx=0;entryDy=0;exitPerimeter=0;" edge="1" parent="1" source="EDuE6eJ9k3U34vcv7kun-114" target="EDuE6eJ9k3U34vcv7kun-98">
          <mxGeometry width="100" height="100" relative="1" as="geometry">
            <mxPoint x="1270" y="-2.5" as="sourcePoint" />
            <mxPoint x="1042.3599999999997" y="7.700000000000273" as="targetPoint" />
          </mxGeometry>
        </mxCell>
        <mxCell id="EDuE6eJ9k3U34vcv7kun-3" value="" style="fontSize=12;html=1;endArrow=ERmany;rounded=0;exitX=0.5;exitY=0;exitDx=0;exitDy=0;entryX=0.5;entryY=1;entryDx=0;entryDy=0;" edge="1" parent="1" source="EDuE6eJ9k3U34vcv7kun-63" target="EDuE6eJ9k3U34vcv7kun-107">
          <mxGeometry width="100" height="100" relative="1" as="geometry">
            <mxPoint x="1270" y="210" as="sourcePoint" />
            <mxPoint x="1270" y="160" as="targetPoint" />
          </mxGeometry>
        </mxCell>
        <mxCell id="EDuE6eJ9k3U34vcv7kun-4" value="" style="edgeStyle=entityRelationEdgeStyle;fontSize=12;html=1;endArrow=ERmany;rounded=0;entryX=0.993;entryY=-0.004;entryDx=0;entryDy=0;exitX=0;exitY=0.5;exitDx=0;exitDy=0;entryPerimeter=0;" edge="1" parent="1" source="EDuE6eJ9k3U34vcv7kun-80" target="EDuE6eJ9k3U34vcv7kun-70">
          <mxGeometry width="100" height="100" relative="1" as="geometry">
            <mxPoint x="1396.08" y="410" as="sourcePoint" />
            <mxPoint x="1535" y="564.46" as="targetPoint" />
          </mxGeometry>
        </mxCell>
        <mxCell id="EDuE6eJ9k3U34vcv7kun-5" value="" style="edgeStyle=entityRelationEdgeStyle;fontSize=12;html=1;endArrow=ERmany;rounded=0;entryX=1.006;entryY=0.229;entryDx=0;entryDy=0;exitX=-0.001;exitY=0.887;exitDx=0;exitDy=0;exitPerimeter=0;entryPerimeter=0;" edge="1" parent="1" source="EDuE6eJ9k3U34vcv7kun-67" target="EDuE6eJ9k3U34vcv7kun-91">
          <mxGeometry width="100" height="100" relative="1" as="geometry">
            <mxPoint x="1170" y="310" as="sourcePoint" />
            <mxPoint x="1040" y="397.49999999999955" as="targetPoint" />
          </mxGeometry>
        </mxCell>
        <mxCell id="EDuE6eJ9k3U34vcv7kun-6" value="Kunde" style="shape=table;startSize=30;container=1;collapsible=1;childLayout=tableLayout;fixedRows=1;rowLines=0;fontStyle=1;align=center;resizeLast=1;html=1;fillColor=#FFFFFF;" vertex="1" parent="1">
          <mxGeometry x="560" y="-20" width="180" height="390" as="geometry" />
        </mxCell>
        <mxCell id="EDuE6eJ9k3U34vcv7kun-7" value="" style="shape=tableRow;horizontal=0;startSize=0;swimlaneHead=0;swimlaneBody=0;fillColor=none;collapsible=0;dropTarget=0;points=[[0,0.5],[1,0.5]];portConstraint=eastwest;top=0;left=0;right=0;bottom=1;" vertex="1" parent="EDuE6eJ9k3U34vcv7kun-6">
          <mxGeometry y="30" width="180" height="30" as="geometry" />
        </mxCell>
        <mxCell id="EDuE6eJ9k3U34vcv7kun-8" value="PK" style="shape=partialRectangle;connectable=0;fillColor=none;top=0;left=0;bottom=0;right=0;fontStyle=1;overflow=hidden;whiteSpace=wrap;html=1;" vertex="1" parent="EDuE6eJ9k3U34vcv7kun-7">
          <mxGeometry width="30" height="30" as="geometry">
            <mxRectangle width="30" height="30" as="alternateBounds" />
          </mxGeometry>
        </mxCell>
        <mxCell id="EDuE6eJ9k3U34vcv7kun-9" value="Kunden-ID" style="shape=partialRectangle;connectable=0;fillColor=none;top=0;left=0;bottom=0;right=0;align=left;spacingLeft=6;fontStyle=5;overflow=hidden;whiteSpace=wrap;html=1;" vertex="1" parent="EDuE6eJ9k3U34vcv7kun-7">
          <mxGeometry x="30" width="150" height="30" as="geometry">
            <mxRectangle width="150" height="30" as="alternateBounds" />
          </mxGeometry>
        </mxCell>
        <mxCell id="EDuE6eJ9k3U34vcv7kun-10" value="" style="shape=tableRow;horizontal=0;startSize=0;swimlaneHead=0;swimlaneBody=0;fillColor=none;collapsible=0;dropTarget=0;points=[[0,0.5],[1,0.5]];portConstraint=eastwest;top=0;left=0;right=0;bottom=0;" vertex="1" parent="EDuE6eJ9k3U34vcv7kun-6">
          <mxGeometry y="60" width="180" height="30" as="geometry" />
        </mxCell>
        <mxCell id="EDuE6eJ9k3U34vcv7kun-11" value="FK" style="shape=partialRectangle;connectable=0;fillColor=none;top=0;left=0;bottom=0;right=0;editable=1;overflow=hidden;whiteSpace=wrap;html=1;" vertex="1" parent="EDuE6eJ9k3U34vcv7kun-10">
          <mxGeometry width="30" height="30" as="geometry">
            <mxRectangle width="30" height="30" as="alternateBounds" />
          </mxGeometry>
        </mxCell>
        <mxCell id="EDuE6eJ9k3U34vcv7kun-12" value="+ Mitgliedsstatus: Int" style="shape=partialRectangle;connectable=0;fillColor=none;top=0;left=0;bottom=0;right=0;align=left;spacingLeft=6;overflow=hidden;whiteSpace=wrap;html=1;" vertex="1" parent="EDuE6eJ9k3U34vcv7kun-10">
          <mxGeometry x="30" width="150" height="30" as="geometry">
            <mxRectangle width="150" height="30" as="alternateBounds" />
          </mxGeometry>
        </mxCell>
        <mxCell id="EDuE6eJ9k3U34vcv7kun-13" value="" style="shape=tableRow;horizontal=0;startSize=0;swimlaneHead=0;swimlaneBody=0;fillColor=none;collapsible=0;dropTarget=0;points=[[0,0.5],[1,0.5]];portConstraint=eastwest;top=0;left=0;right=0;bottom=0;" vertex="1" parent="EDuE6eJ9k3U34vcv7kun-6">
          <mxGeometry y="90" width="180" height="280" as="geometry" />
        </mxCell>
        <mxCell id="EDuE6eJ9k3U34vcv7kun-14" value="" style="shape=partialRectangle;connectable=0;fillColor=none;top=0;left=0;bottom=0;right=0;editable=1;overflow=hidden;whiteSpace=wrap;html=1;" vertex="1" parent="EDuE6eJ9k3U34vcv7kun-13">
          <mxGeometry width="30" height="280" as="geometry">
            <mxRectangle width="30" height="280" as="alternateBounds" />
          </mxGeometry>
        </mxCell>
        <mxCell id="EDuE6eJ9k3U34vcv7kun-15" value="&lt;span style=&quot;text-wrap: nowrap;&quot;&gt;+ Kunden-Id&lt;/span&gt;&lt;div style=&quot;text-wrap: nowrap;&quot;&gt;+ Kunden-Nr&lt;/div&gt;&lt;div style=&quot;text-wrap: nowrap;&quot;&gt;+ Vorname&lt;/div&gt;&lt;div style=&quot;text-wrap: nowrap;&quot;&gt;+ Vorname2&lt;/div&gt;&lt;div style=&quot;text-wrap: nowrap;&quot;&gt;+ Name&lt;/div&gt;&lt;div style=&quot;text-wrap: nowrap;&quot;&gt;+ Anrede&lt;/div&gt;&lt;div style=&quot;text-wrap: nowrap;&quot;&gt;+ Titel&lt;/div&gt;&lt;div style=&quot;text-wrap: nowrap;&quot;&gt;+ PLZ&lt;/div&gt;&lt;div style=&quot;text-wrap: nowrap;&quot;&gt;+ StraÃŸe&lt;/div&gt;&lt;div style=&quot;text-wrap: nowrap;&quot;&gt;+ Hausnr&lt;/div&gt;&lt;div style=&quot;text-wrap: nowrap;&quot;&gt;+ eMail&lt;/div&gt;&lt;div style=&quot;text-wrap: nowrap;&quot;&gt;+ Telefonnummer&lt;/div&gt;&lt;div style=&quot;text-wrap: nowrap;&quot;&gt;+ Geschlecht&lt;/div&gt;&lt;div style=&quot;text-wrap: nowrap;&quot;&gt;+ Geb-Datum&lt;/div&gt;&lt;div style=&quot;text-wrap: nowrap;&quot;&gt;+ Beruf&lt;/div&gt;&lt;div style=&quot;text-wrap: nowrap;&quot;&gt;+ Perso-Nr.&lt;/div&gt;&lt;div style=&quot;text-wrap: nowrap;&quot;&gt;+ Ablaufdatum Perso&lt;/div&gt;&lt;div style=&quot;text-wrap: nowrap;&quot;&gt;+ Mitglied seit&lt;/div&gt;&lt;div style=&quot;text-wrap: nowrap;&quot;&gt;+ Mitglied bis&lt;/div&gt;" style="shape=partialRectangle;connectable=0;fillColor=none;top=0;left=0;bottom=0;right=0;align=left;spacingLeft=6;overflow=hidden;whiteSpace=wrap;html=1;" vertex="1" parent="EDuE6eJ9k3U34vcv7kun-13">
          <mxGeometry x="30" width="150" height="280" as="geometry">
            <mxRectangle width="150" height="280" as="alternateBounds" />
          </mxGeometry>
        </mxCell>
        <mxCell id="EDuE6eJ9k3U34vcv7kun-16" value="" style="shape=tableRow;horizontal=0;startSize=0;swimlaneHead=0;swimlaneBody=0;fillColor=none;collapsible=0;dropTarget=0;points=[[0,0.5],[1,0.5]];portConstraint=eastwest;top=0;left=0;right=0;bottom=0;" vertex="1" parent="EDuE6eJ9k3U34vcv7kun-6">
          <mxGeometry y="370" width="180" height="20" as="geometry" />
        </mxCell>
        <mxCell id="EDuE6eJ9k3U34vcv7kun-17" value="" style="shape=partialRectangle;connectable=0;fillColor=none;top=0;left=0;bottom=0;right=0;editable=1;overflow=hidden;whiteSpace=wrap;html=1;" vertex="1" parent="EDuE6eJ9k3U34vcv7kun-16">
          <mxGeometry width="30" height="20" as="geometry">
            <mxRectangle width="30" height="20" as="alternateBounds" />
          </mxGeometry>
        </mxCell>
        <mxCell id="EDuE6eJ9k3U34vcv7kun-18" value="" style="shape=partialRectangle;connectable=0;fillColor=none;top=0;left=0;bottom=0;right=0;align=left;spacingLeft=6;overflow=hidden;whiteSpace=wrap;html=1;" vertex="1" parent="EDuE6eJ9k3U34vcv7kun-16">
          <mxGeometry x="30" width="150" height="20" as="geometry">
            <mxRectangle width="150" height="20" as="alternateBounds" />
          </mxGeometry>
        </mxCell>
        <mxCell id="EDuE6eJ9k3U34vcv7kun-19" value="Beitragszahlung" style="shape=table;startSize=30;container=1;collapsible=1;childLayout=tableLayout;fixedRows=1;rowLines=0;fontStyle=1;align=center;resizeLast=1;html=1;" vertex="1" parent="1">
          <mxGeometry x="235" y="-50" width="200" height="140.00000000000227" as="geometry" />
        </mxCell>
        <mxCell id="EDuE6eJ9k3U34vcv7kun-20" value="" style="shape=tableRow;horizontal=0;startSize=0;swimlaneHead=0;swimlaneBody=0;fillColor=none;collapsible=0;dropTarget=0;points=[[0,0.5],[1,0.5]];portConstraint=eastwest;top=0;left=0;right=0;bottom=1;" vertex="1" parent="EDuE6eJ9k3U34vcv7kun-19">
          <mxGeometry y="30" width="200" height="30" as="geometry" />
        </mxCell>
        <mxCell id="EDuE6eJ9k3U34vcv7kun-21" value="PK" style="shape=partialRectangle;connectable=0;fillColor=none;top=0;left=0;bottom=0;right=0;fontStyle=1;overflow=hidden;whiteSpace=wrap;html=1;" vertex="1" parent="EDuE6eJ9k3U34vcv7kun-20">
          <mxGeometry width="30" height="30" as="geometry">
            <mxRectangle width="30" height="30" as="alternateBounds" />
          </mxGeometry>
        </mxCell>
        <mxCell id="EDuE6eJ9k3U34vcv7kun-22" value="Zahlungs-ID" style="shape=partialRectangle;connectable=0;fillColor=none;top=0;left=0;bottom=0;right=0;align=left;spacingLeft=6;fontStyle=5;overflow=hidden;whiteSpace=wrap;html=1;" vertex="1" parent="EDuE6eJ9k3U34vcv7kun-20">
          <mxGeometry x="30" width="170" height="30" as="geometry">
            <mxRectangle width="170" height="30" as="alternateBounds" />
          </mxGeometry>
        </mxCell>
        <mxCell id="EDuE6eJ9k3U34vcv7kun-23" value="" style="shape=tableRow;horizontal=0;startSize=0;swimlaneHead=0;swimlaneBody=0;fillColor=none;collapsible=0;dropTarget=0;points=[[0,0.5],[1,0.5]];portConstraint=eastwest;top=0;left=0;right=0;bottom=0;" vertex="1" parent="EDuE6eJ9k3U34vcv7kun-19">
          <mxGeometry y="60" width="200" height="30" as="geometry" />
        </mxCell>
        <mxCell id="EDuE6eJ9k3U34vcv7kun-24" value="FK" style="shape=partialRectangle;connectable=0;fillColor=none;top=0;left=0;bottom=0;right=0;editable=1;overflow=hidden;whiteSpace=wrap;html=1;" vertex="1" parent="EDuE6eJ9k3U34vcv7kun-23">
          <mxGeometry width="30" height="30" as="geometry">
            <mxRectangle width="30" height="30" as="alternateBounds" />
          </mxGeometry>
        </mxCell>
        <mxCell id="EDuE6eJ9k3U34vcv7kun-25" value="+ Kunden-ID" style="shape=partialRectangle;connectable=0;fillColor=none;top=0;left=0;bottom=0;right=0;align=left;spacingLeft=6;overflow=hidden;whiteSpace=wrap;html=1;" vertex="1" parent="EDuE6eJ9k3U34vcv7kun-23">
          <mxGeometry x="30" width="170" height="30" as="geometry">
            <mxRectangle width="170" height="30" as="alternateBounds" />
          </mxGeometry>
        </mxCell>
        <mxCell id="EDuE6eJ9k3U34vcv7kun-26" value="" style="shape=tableRow;horizontal=0;startSize=0;swimlaneHead=0;swimlaneBody=0;fillColor=none;collapsible=0;dropTarget=0;points=[[0,0.5],[1,0.5]];portConstraint=eastwest;top=0;left=0;right=0;bottom=0;" vertex="1" parent="EDuE6eJ9k3U34vcv7kun-19">
          <mxGeometry y="90" width="200" height="50" as="geometry" />
        </mxCell>
        <mxCell id="EDuE6eJ9k3U34vcv7kun-27" value="" style="shape=partialRectangle;connectable=0;fillColor=none;top=0;left=0;bottom=0;right=0;editable=1;overflow=hidden;whiteSpace=wrap;html=1;" vertex="1" parent="EDuE6eJ9k3U34vcv7kun-26">
          <mxGeometry width="30" height="50" as="geometry">
            <mxRectangle width="30" height="50" as="alternateBounds" />
          </mxGeometry>
        </mxCell>
        <mxCell id="EDuE6eJ9k3U34vcv7kun-28" value="+ Datum: Date&lt;div&gt;+ Betrag: Decimal&lt;/div&gt;" style="shape=partialRectangle;connectable=0;fillColor=none;top=0;left=0;bottom=0;right=0;align=left;spacingLeft=6;overflow=hidden;whiteSpace=wrap;html=1;" vertex="1" parent="EDuE6eJ9k3U34vcv7kun-26">
          <mxGeometry x="30" width="170" height="50" as="geometry">
            <mxRectangle width="170" height="50" as="alternateBounds" />
          </mxGeometry>
        </mxCell>
        <mxCell id="EDuE6eJ9k3U34vcv7kun-29" value="" style="edgeStyle=entityRelationEdgeStyle;fontSize=12;html=1;endArrow=ERmany;rounded=0;entryX=1;entryY=0.794;entryDx=0;entryDy=0;exitX=-0.007;exitY=0.142;exitDx=0;exitDy=0;exitPerimeter=0;entryPerimeter=0;" edge="1" parent="1" source="EDuE6eJ9k3U34vcv7kun-13" target="EDuE6eJ9k3U34vcv7kun-23">
          <mxGeometry width="100" height="100" relative="1" as="geometry">
            <mxPoint x="751" y="253" as="sourcePoint" />
            <mxPoint x="890" y="407" as="targetPoint" />
          </mxGeometry>
        </mxCell>
        <mxCell id="EDuE6eJ9k3U34vcv7kun-30" value="Mitgliedstatus" style="shape=table;startSize=30;container=1;collapsible=1;childLayout=tableLayout;fixedRows=1;rowLines=0;fontStyle=1;align=center;resizeLast=1;html=1;" vertex="1" parent="1">
          <mxGeometry x="240" y="170" width="200" height="140.00000000000227" as="geometry" />
        </mxCell>
        <mxCell id="EDuE6eJ9k3U34vcv7kun-31" value="" style="shape=tableRow;horizontal=0;startSize=0;swimlaneHead=0;swimlaneBody=0;fillColor=none;collapsible=0;dropTarget=0;points=[[0,0.5],[1,0.5]];portConstraint=eastwest;top=0;left=0;right=0;bottom=1;" vertex="1" parent="EDuE6eJ9k3U34vcv7kun-30">
          <mxGeometry y="30" width="200" height="30" as="geometry" />
        </mxCell>
        <mxCell id="EDuE6eJ9k3U34vcv7kun-32" value="PK" style="shape=partialRectangle;connectable=0;fillColor=none;top=0;left=0;bottom=0;right=0;fontStyle=1;overflow=hidden;whiteSpace=wrap;html=1;" vertex="1" parent="EDuE6eJ9k3U34vcv7kun-31">
          <mxGeometry width="30" height="30" as="geometry">
            <mxRectangle width="30" height="30" as="alternateBounds" />
          </mxGeometry>
        </mxCell>
        <mxCell id="EDuE6eJ9k3U34vcv7kun-33" value="Status-ID" style="shape=partialRectangle;connectable=0;fillColor=none;top=0;left=0;bottom=0;right=0;align=left;spacingLeft=6;fontStyle=5;overflow=hidden;whiteSpace=wrap;html=1;" vertex="1" parent="EDuE6eJ9k3U34vcv7kun-31">
          <mxGeometry x="30" width="170" height="30" as="geometry">
            <mxRectangle width="170" height="30" as="alternateBounds" />
          </mxGeometry>
        </mxCell>
        <mxCell id="EDuE6eJ9k3U34vcv7kun-34" value="" style="shape=tableRow;horizontal=0;startSize=0;swimlaneHead=0;swimlaneBody=0;fillColor=none;collapsible=0;dropTarget=0;points=[[0,0.5],[1,0.5]];portConstraint=eastwest;top=0;left=0;right=0;bottom=0;" vertex="1" parent="EDuE6eJ9k3U34vcv7kun-30">
          <mxGeometry y="60" width="200" height="60" as="geometry" />
        </mxCell>
        <mxCell id="EDuE6eJ9k3U34vcv7kun-35" value="" style="shape=partialRectangle;connectable=0;fillColor=none;top=0;left=0;bottom=0;right=0;editable=1;overflow=hidden;whiteSpace=wrap;html=1;" vertex="1" parent="EDuE6eJ9k3U34vcv7kun-34">
          <mxGeometry width="30" height="60" as="geometry">
            <mxRectangle width="30" height="60" as="alternateBounds" />
          </mxGeometry>
        </mxCell>
        <mxCell id="EDuE6eJ9k3U34vcv7kun-36" value="+ Bezeichnung: String&lt;div&gt;+ Jahresbeitrag: Decimal&lt;/div&gt;&lt;div&gt;+ Mahnbetrag: Decimal&lt;/div&gt;" style="shape=partialRectangle;connectable=0;fillColor=none;top=0;left=0;bottom=0;right=0;align=left;spacingLeft=6;overflow=hidden;whiteSpace=wrap;html=1;" vertex="1" parent="EDuE6eJ9k3U34vcv7kun-34">
          <mxGeometry x="30" width="170" height="60" as="geometry">
            <mxRectangle width="170" height="60" as="alternateBounds" />
          </mxGeometry>
        </mxCell>
        <mxCell id="EDuE6eJ9k3U34vcv7kun-37" value="" style="shape=tableRow;horizontal=0;startSize=0;swimlaneHead=0;swimlaneBody=0;fillColor=none;collapsible=0;dropTarget=0;points=[[0,0.5],[1,0.5]];portConstraint=eastwest;top=0;left=0;right=0;bottom=0;" vertex="1" parent="EDuE6eJ9k3U34vcv7kun-30">
          <mxGeometry y="120" width="200" height="20" as="geometry" />
        </mxCell>
        <mxCell id="EDuE6eJ9k3U34vcv7kun-38" value="" style="shape=partialRectangle;connectable=0;fillColor=none;top=0;left=0;bottom=0;right=0;editable=1;overflow=hidden;whiteSpace=wrap;html=1;" vertex="1" parent="EDuE6eJ9k3U34vcv7kun-37">
          <mxGeometry width="30" height="20" as="geometry">
            <mxRectangle width="30" height="20" as="alternateBounds" />
          </mxGeometry>
        </mxCell>
        <mxCell id="EDuE6eJ9k3U34vcv7kun-39" value="" style="shape=partialRectangle;connectable=0;fillColor=none;top=0;left=0;bottom=0;right=0;align=left;spacingLeft=6;overflow=hidden;whiteSpace=wrap;html=1;" vertex="1" parent="EDuE6eJ9k3U34vcv7kun-37">
          <mxGeometry x="30" width="170" height="20" as="geometry">
            <mxRectangle width="170" height="20" as="alternateBounds" />
          </mxGeometry>
        </mxCell>
        <mxCell id="EDuE6eJ9k3U34vcv7kun-40" value="" style="fontSize=12;html=1;endArrow=ERmany;rounded=0;entryX=0.491;entryY=1.02;entryDx=0;entryDy=0;exitX=0.327;exitY=-0.013;exitDx=0;exitDy=0;entryPerimeter=0;exitPerimeter=0;" edge="1" parent="1" source="EDuE6eJ9k3U34vcv7kun-97" target="EDuE6eJ9k3U34vcv7kun-48">
          <mxGeometry width="100" height="100" relative="1" as="geometry">
            <mxPoint x="959" y="-90" as="sourcePoint" />
            <mxPoint x="748.0999999999999" y="-109.63999999999999" as="targetPoint" />
            <Array as="points">
              <mxPoint x="920" y="-50" />
              <mxPoint x="773" y="-110" />
            </Array>
          </mxGeometry>
        </mxCell>
        <mxCell id="EDuE6eJ9k3U34vcv7kun-41" value="Leihzahlung" style="shape=table;startSize=30;container=1;collapsible=1;childLayout=tableLayout;fixedRows=1;rowLines=0;fontStyle=1;align=center;resizeLast=1;html=1;" vertex="1" parent="1">
          <mxGeometry x="675" y="-300" width="200" height="140.00000000000227" as="geometry" />
        </mxCell>
        <mxCell id="EDuE6eJ9k3U34vcv7kun-42" value="" style="shape=tableRow;horizontal=0;startSize=0;swimlaneHead=0;swimlaneBody=0;fillColor=none;collapsible=0;dropTarget=0;points=[[0,0.5],[1,0.5]];portConstraint=eastwest;top=0;left=0;right=0;bottom=1;" vertex="1" parent="EDuE6eJ9k3U34vcv7kun-41">
          <mxGeometry y="30" width="200" height="30" as="geometry" />
        </mxCell>
        <mxCell id="EDuE6eJ9k3U34vcv7kun-43" value="PK" style="shape=partialRectangle;connectable=0;fillColor=none;top=0;left=0;bottom=0;right=0;fontStyle=1;overflow=hidden;whiteSpace=wrap;html=1;" vertex="1" parent="EDuE6eJ9k3U34vcv7kun-42">
          <mxGeometry width="30" height="30" as="geometry">
            <mxRectangle width="30" height="30" as="alternateBounds" />
          </mxGeometry>
        </mxCell>
        <mxCell id="EDuE6eJ9k3U34vcv7kun-44" value="Zahlungs-ID" style="shape=partialRectangle;connectable=0;fillColor=none;top=0;left=0;bottom=0;right=0;align=left;spacingLeft=6;fontStyle=5;overflow=hidden;whiteSpace=wrap;html=1;" vertex="1" parent="EDuE6eJ9k3U34vcv7kun-42">
          <mxGeometry x="30" width="170" height="30" as="geometry">
            <mxRectangle width="170" height="30" as="alternateBounds" />
          </mxGeometry>
        </mxCell>
        <mxCell id="EDuE6eJ9k3U34vcv7kun-45" value="" style="shape=tableRow;horizontal=0;startSize=0;swimlaneHead=0;swimlaneBody=0;fillColor=none;collapsible=0;dropTarget=0;points=[[0,0.5],[1,0.5]];portConstraint=eastwest;top=0;left=0;right=0;bottom=0;" vertex="1" parent="EDuE6eJ9k3U34vcv7kun-41">
          <mxGeometry y="60" width="200" height="30" as="geometry" />
        </mxCell>
        <mxCell id="EDuE6eJ9k3U34vcv7kun-46" value="FK" style="shape=partialRectangle;connectable=0;fillColor=none;top=0;left=0;bottom=0;right=0;editable=1;overflow=hidden;whiteSpace=wrap;html=1;" vertex="1" parent="EDuE6eJ9k3U34vcv7kun-45">
          <mxGeometry width="30" height="30" as="geometry">
            <mxRectangle width="30" height="30" as="alternateBounds" />
          </mxGeometry>
        </mxCell>
        <mxCell id="EDuE6eJ9k3U34vcv7kun-47" value="+ Leih-ID" style="shape=partialRectangle;connectable=0;fillColor=none;top=0;left=0;bottom=0;right=0;align=left;spacingLeft=6;overflow=hidden;whiteSpace=wrap;html=1;" vertex="1" parent="EDuE6eJ9k3U34vcv7kun-45">
          <mxGeometry x="30" width="170" height="30" as="geometry">
            <mxRectangle width="170" height="30" as="alternateBounds" />
          </mxGeometry>
        </mxCell>
        <mxCell id="EDuE6eJ9k3U34vcv7kun-48" value="" style="shape=tableRow;horizontal=0;startSize=0;swimlaneHead=0;swimlaneBody=0;fillColor=none;collapsible=0;dropTarget=0;points=[[0,0.5],[1,0.5]];portConstraint=eastwest;top=0;left=0;right=0;bottom=0;" vertex="1" parent="EDuE6eJ9k3U34vcv7kun-41">
          <mxGeometry y="90" width="200" height="50" as="geometry" />
        </mxCell>
        <mxCell id="EDuE6eJ9k3U34vcv7kun-49" value="" style="shape=partialRectangle;connectable=0;fillColor=none;top=0;left=0;bottom=0;right=0;editable=1;overflow=hidden;whiteSpace=wrap;html=1;" vertex="1" parent="EDuE6eJ9k3U34vcv7kun-48">
          <mxGeometry width="30" height="50" as="geometry">
            <mxRectangle width="30" height="50" as="alternateBounds" />
          </mxGeometry>
        </mxCell>
        <mxCell id="EDuE6eJ9k3U34vcv7kun-50" value="+ Datum: Date&lt;div&gt;+ Betrag: Decimal&lt;/div&gt;&lt;div&gt;+ Art: String&lt;/div&gt;" style="shape=partialRectangle;connectable=0;fillColor=none;top=0;left=0;bottom=0;right=0;align=left;spacingLeft=6;overflow=hidden;whiteSpace=wrap;html=1;" vertex="1" parent="EDuE6eJ9k3U34vcv7kun-48">
          <mxGeometry x="30" width="170" height="50" as="geometry">
            <mxRectangle width="170" height="50" as="alternateBounds" />
          </mxGeometry>
        </mxCell>
        <mxCell id="EDuE6eJ9k3U34vcv7kun-51" value="" style="edgeStyle=entityRelationEdgeStyle;fontSize=12;html=1;endArrow=ERmany;rounded=0;exitX=1;exitY=0.5;exitDx=0;exitDy=0;entryX=0;entryY=0.5;entryDx=0;entryDy=0;" edge="1" parent="1" source="EDuE6eJ9k3U34vcv7kun-34" target="EDuE6eJ9k3U34vcv7kun-13">
          <mxGeometry width="100" height="100" relative="1" as="geometry">
            <mxPoint x="431" y="111" as="sourcePoint" />
            <mxPoint x="560" y="171" as="targetPoint" />
          </mxGeometry>
        </mxCell>
        <mxCell id="EDuE6eJ9k3U34vcv7kun-52" value="Sendung" style="shape=table;startSize=30;container=1;collapsible=1;childLayout=tableLayout;fixedRows=1;rowLines=0;fontStyle=1;align=center;resizeLast=1;html=1;" vertex="1" parent="1">
          <mxGeometry x="1070" y="-300" width="200" height="170.00000000000227" as="geometry" />
        </mxCell>
        <mxCell id="EDuE6eJ9k3U34vcv7kun-53" value="" style="shape=tableRow;horizontal=0;startSize=0;swimlaneHead=0;swimlaneBody=0;fillColor=none;collapsible=0;dropTarget=0;points=[[0,0.5],[1,0.5]];portConstraint=eastwest;top=0;left=0;right=0;bottom=1;" vertex="1" parent="EDuE6eJ9k3U34vcv7kun-52">
          <mxGeometry y="30" width="200" height="30" as="geometry" />
        </mxCell>
        <mxCell id="EDuE6eJ9k3U34vcv7kun-54" value="PK" style="shape=partialRectangle;connectable=0;fillColor=none;top=0;left=0;bottom=0;right=0;fontStyle=1;overflow=hidden;whiteSpace=wrap;html=1;" vertex="1" parent="EDuE6eJ9k3U34vcv7kun-53">
          <mxGeometry width="30" height="30" as="geometry">
            <mxRectangle width="30" height="30" as="alternateBounds" />
          </mxGeometry>
        </mxCell>
        <mxCell id="EDuE6eJ9k3U34vcv7kun-55" value="Versand-ID" style="shape=partialRectangle;connectable=0;fillColor=none;top=0;left=0;bottom=0;right=0;align=left;spacingLeft=6;fontStyle=5;overflow=hidden;whiteSpace=wrap;html=1;" vertex="1" parent="EDuE6eJ9k3U34vcv7kun-53">
          <mxGeometry x="30" width="170" height="30" as="geometry">
            <mxRectangle width="170" height="30" as="alternateBounds" />
          </mxGeometry>
        </mxCell>
        <mxCell id="EDuE6eJ9k3U34vcv7kun-56" value="" style="shape=tableRow;horizontal=0;startSize=0;swimlaneHead=0;swimlaneBody=0;fillColor=none;collapsible=0;dropTarget=0;points=[[0,0.5],[1,0.5]];portConstraint=eastwest;top=0;left=0;right=0;bottom=0;" vertex="1" parent="EDuE6eJ9k3U34vcv7kun-52">
          <mxGeometry y="60" width="200" height="30" as="geometry" />
        </mxCell>
        <mxCell id="EDuE6eJ9k3U34vcv7kun-57" value="FK" style="shape=partialRectangle;connectable=0;fillColor=none;top=0;left=0;bottom=0;right=0;editable=1;overflow=hidden;whiteSpace=wrap;html=1;" vertex="1" parent="EDuE6eJ9k3U34vcv7kun-56">
          <mxGeometry width="30" height="30" as="geometry">
            <mxRectangle width="30" height="30" as="alternateBounds" />
          </mxGeometry>
        </mxCell>
        <mxCell id="EDuE6eJ9k3U34vcv7kun-58" value="+ Leih-ID" style="shape=partialRectangle;connectable=0;fillColor=none;top=0;left=0;bottom=0;right=0;align=left;spacingLeft=6;overflow=hidden;whiteSpace=wrap;html=1;" vertex="1" parent="EDuE6eJ9k3U34vcv7kun-56">
          <mxGeometry x="30" width="170" height="30" as="geometry">
            <mxRectangle width="170" height="30" as="alternateBounds" />
          </mxGeometry>
        </mxCell>
        <mxCell id="EDuE6eJ9k3U34vcv7kun-59" value="" style="shape=tableRow;horizontal=0;startSize=0;swimlaneHead=0;swimlaneBody=0;fillColor=none;collapsible=0;dropTarget=0;points=[[0,0.5],[1,0.5]];portConstraint=eastwest;top=0;left=0;right=0;bottom=0;" vertex="1" parent="EDuE6eJ9k3U34vcv7kun-52">
          <mxGeometry y="90" width="200" height="80" as="geometry" />
        </mxCell>
        <mxCell id="EDuE6eJ9k3U34vcv7kun-60" value="" style="shape=partialRectangle;connectable=0;fillColor=none;top=0;left=0;bottom=0;right=0;editable=1;overflow=hidden;whiteSpace=wrap;html=1;" vertex="1" parent="EDuE6eJ9k3U34vcv7kun-59">
          <mxGeometry width="30" height="80" as="geometry">
            <mxRectangle width="30" height="80" as="alternateBounds" />
          </mxGeometry>
        </mxCell>
        <mxCell id="EDuE6eJ9k3U34vcv7kun-61" value="+ Sendungs-Nr: String&lt;div&gt;+ Versanddatum: Date&lt;/div&gt;&lt;div&gt;+ Zugestellt: Date&lt;br&gt;&lt;div&gt;+ Kosten: Decimal&lt;/div&gt;&lt;/div&gt;" style="shape=partialRectangle;connectable=0;fillColor=none;top=0;left=0;bottom=0;right=0;align=left;spacingLeft=6;overflow=hidden;whiteSpace=wrap;html=1;" vertex="1" parent="EDuE6eJ9k3U34vcv7kun-59">
          <mxGeometry x="30" width="170" height="80" as="geometry">
            <mxRectangle width="170" height="80" as="alternateBounds" />
          </mxGeometry>
        </mxCell>
        <mxCell id="EDuE6eJ9k3U34vcv7kun-62" value="" style="fontSize=12;html=1;endArrow=ERmany;rounded=0;exitX=0.513;exitY=1.015;exitDx=0;exitDy=0;exitPerimeter=0;entryX=0.657;entryY=0.002;entryDx=0;entryDy=0;entryPerimeter=0;" edge="1" parent="1" source="EDuE6eJ9k3U34vcv7kun-59" target="EDuE6eJ9k3U34vcv7kun-97">
          <mxGeometry width="100" height="100" relative="1" as="geometry">
            <mxPoint x="430" y="120" as="sourcePoint" />
            <mxPoint x="1040.1200000000003" y="-14.199999999999818" as="targetPoint" />
            <Array as="points">
              <mxPoint x="1173" y="-100" />
              <mxPoint x="980" y="-40" />
            </Array>
          </mxGeometry>
        </mxCell>
        <mxCell id="EDuE6eJ9k3U34vcv7kun-63" value="Buch" style="shape=table;startSize=30;container=1;collapsible=1;childLayout=tableLayout;fixedRows=1;rowLines=0;fontStyle=1;align=center;resizeLast=1;html=1;" vertex="1" parent="1">
          <mxGeometry x="1180" y="240" width="180" height="170" as="geometry" />
        </mxCell>
        <mxCell id="EDuE6eJ9k3U34vcv7kun-64" value="" style="shape=tableRow;horizontal=0;startSize=0;swimlaneHead=0;swimlaneBody=0;fillColor=none;collapsible=0;dropTarget=0;points=[[0,0.5],[1,0.5]];portConstraint=eastwest;top=0;left=0;right=0;bottom=1;" vertex="1" parent="EDuE6eJ9k3U34vcv7kun-63">
          <mxGeometry y="30" width="180" height="30" as="geometry" />
        </mxCell>
        <mxCell id="EDuE6eJ9k3U34vcv7kun-65" value="PK" style="shape=partialRectangle;connectable=0;fillColor=none;top=0;left=0;bottom=0;right=0;fontStyle=1;overflow=hidden;whiteSpace=wrap;html=1;" vertex="1" parent="EDuE6eJ9k3U34vcv7kun-64">
          <mxGeometry width="30" height="30" as="geometry">
            <mxRectangle width="30" height="30" as="alternateBounds" />
          </mxGeometry>
        </mxCell>
        <mxCell id="EDuE6eJ9k3U34vcv7kun-66" value="Buch-ID" style="shape=partialRectangle;connectable=0;fillColor=none;top=0;left=0;bottom=0;right=0;align=left;spacingLeft=6;fontStyle=5;overflow=hidden;whiteSpace=wrap;html=1;" vertex="1" parent="EDuE6eJ9k3U34vcv7kun-64">
          <mxGeometry x="30" width="150" height="30" as="geometry">
            <mxRectangle width="150" height="30" as="alternateBounds" />
          </mxGeometry>
        </mxCell>
        <mxCell id="EDuE6eJ9k3U34vcv7kun-67" value="" style="shape=tableRow;horizontal=0;startSize=0;swimlaneHead=0;swimlaneBody=0;fillColor=none;collapsible=0;dropTarget=0;points=[[0,0.5],[1,0.5]];portConstraint=eastwest;top=0;left=0;right=0;bottom=0;" vertex="1" parent="EDuE6eJ9k3U34vcv7kun-63">
          <mxGeometry y="60" width="180" height="30" as="geometry" />
        </mxCell>
        <mxCell id="EDuE6eJ9k3U34vcv7kun-68" value="FK" style="shape=partialRectangle;connectable=0;fillColor=none;top=0;left=0;bottom=0;right=0;editable=1;overflow=hidden;whiteSpace=wrap;html=1;" vertex="1" parent="EDuE6eJ9k3U34vcv7kun-67">
          <mxGeometry width="30" height="30" as="geometry">
            <mxRectangle width="30" height="30" as="alternateBounds" />
          </mxGeometry>
        </mxCell>
        <mxCell id="EDuE6eJ9k3U34vcv7kun-69" value="+Autor-ID" style="shape=partialRectangle;connectable=0;fillColor=none;top=0;left=0;bottom=0;right=0;align=left;spacingLeft=6;overflow=hidden;whiteSpace=wrap;html=1;" vertex="1" parent="EDuE6eJ9k3U34vcv7kun-67">
          <mxGeometry x="30" width="150" height="30" as="geometry">
            <mxRectangle width="150" height="30" as="alternateBounds" />
          </mxGeometry>
        </mxCell>
        <mxCell id="EDuE6eJ9k3U34vcv7kun-70" value="" style="shape=tableRow;horizontal=0;startSize=0;swimlaneHead=0;swimlaneBody=0;fillColor=none;collapsible=0;dropTarget=0;points=[[0,0.5],[1,0.5]];portConstraint=eastwest;top=0;left=0;right=0;bottom=0;" vertex="1" parent="EDuE6eJ9k3U34vcv7kun-63">
          <mxGeometry y="90" width="180" height="50" as="geometry" />
        </mxCell>
        <mxCell id="EDuE6eJ9k3U34vcv7kun-71" value="" style="shape=partialRectangle;connectable=0;fillColor=none;top=0;left=0;bottom=0;right=0;editable=1;overflow=hidden;whiteSpace=wrap;html=1;" vertex="1" parent="EDuE6eJ9k3U34vcv7kun-70">
          <mxGeometry width="30" height="50" as="geometry">
            <mxRectangle width="30" height="50" as="alternateBounds" />
          </mxGeometry>
        </mxCell>
        <mxCell id="EDuE6eJ9k3U34vcv7kun-72" value="+Titel&lt;div&gt;+Jahr&lt;/div&gt;&lt;div&gt;+ Art&lt;/div&gt;" style="shape=partialRectangle;connectable=0;fillColor=none;top=0;left=0;bottom=0;right=0;align=left;spacingLeft=6;overflow=hidden;whiteSpace=wrap;html=1;" vertex="1" parent="EDuE6eJ9k3U34vcv7kun-70">
          <mxGeometry x="30" width="150" height="50" as="geometry">
            <mxRectangle width="150" height="50" as="alternateBounds" />
          </mxGeometry>
        </mxCell>
        <mxCell id="EDuE6eJ9k3U34vcv7kun-73" value="" style="shape=tableRow;horizontal=0;startSize=0;swimlaneHead=0;swimlaneBody=0;fillColor=none;collapsible=0;dropTarget=0;points=[[0,0.5],[1,0.5]];portConstraint=eastwest;top=0;left=0;right=0;bottom=0;" vertex="1" parent="EDuE6eJ9k3U34vcv7kun-63">
          <mxGeometry y="140" width="180" height="30" as="geometry" />
        </mxCell>
        <mxCell id="EDuE6eJ9k3U34vcv7kun-74" value="" style="shape=partialRectangle;connectable=0;fillColor=none;top=0;left=0;bottom=0;right=0;editable=1;overflow=hidden;whiteSpace=wrap;html=1;" vertex="1" parent="EDuE6eJ9k3U34vcv7kun-73">
          <mxGeometry width="30" height="30" as="geometry">
            <mxRectangle width="30" height="30" as="alternateBounds" />
          </mxGeometry>
        </mxCell>
        <mxCell id="EDuE6eJ9k3U34vcv7kun-75" value="" style="shape=partialRectangle;connectable=0;fillColor=none;top=0;left=0;bottom=0;right=0;align=left;spacingLeft=6;overflow=hidden;whiteSpace=wrap;html=1;" vertex="1" parent="EDuE6eJ9k3U34vcv7kun-73">
          <mxGeometry x="30" width="150" height="30" as="geometry">
            <mxRectangle width="150" height="30" as="alternateBounds" />
          </mxGeometry>
        </mxCell>
        <mxCell id="EDuE6eJ9k3U34vcv7kun-76" value="Autor" style="shape=table;startSize=30;container=1;collapsible=1;childLayout=tableLayout;fixedRows=1;rowLines=0;fontStyle=1;align=center;resizeLast=1;html=1;" vertex="1" parent="1">
          <mxGeometry x="1510" y="240" width="180" height="170" as="geometry" />
        </mxCell>
        <mxCell id="EDuE6eJ9k3U34vcv7kun-77" value="" style="shape=tableRow;horizontal=0;startSize=0;swimlaneHead=0;swimlaneBody=0;fillColor=none;collapsible=0;dropTarget=0;points=[[0,0.5],[1,0.5]];portConstraint=eastwest;top=0;left=0;right=0;bottom=1;" vertex="1" parent="EDuE6eJ9k3U34vcv7kun-76">
          <mxGeometry y="30" width="180" height="30" as="geometry" />
        </mxCell>
        <mxCell id="EDuE6eJ9k3U34vcv7kun-78" value="PK" style="shape=partialRectangle;connectable=0;fillColor=none;top=0;left=0;bottom=0;right=0;fontStyle=1;overflow=hidden;whiteSpace=wrap;html=1;" vertex="1" parent="EDuE6eJ9k3U34vcv7kun-77">
          <mxGeometry width="30" height="30" as="geometry">
            <mxRectangle width="30" height="30" as="alternateBounds" />
          </mxGeometry>
        </mxCell>
        <mxCell id="EDuE6eJ9k3U34vcv7kun-79" value="Autor-ID" style="shape=partialRectangle;connectable=0;fillColor=none;top=0;left=0;bottom=0;right=0;align=left;spacingLeft=6;fontStyle=5;overflow=hidden;whiteSpace=wrap;html=1;" vertex="1" parent="EDuE6eJ9k3U34vcv7kun-77">
          <mxGeometry x="30" width="150" height="30" as="geometry">
            <mxRectangle width="150" height="30" as="alternateBounds" />
          </mxGeometry>
        </mxCell>
        <mxCell id="EDuE6eJ9k3U34vcv7kun-80" value="" style="shape=tableRow;horizontal=0;startSize=0;swimlaneHead=0;swimlaneBody=0;fillColor=none;collapsible=0;dropTarget=0;points=[[0,0.5],[1,0.5]];portConstraint=eastwest;top=0;left=0;right=0;bottom=0;" vertex="1" parent="EDuE6eJ9k3U34vcv7kun-76">
          <mxGeometry y="60" width="180" height="90" as="geometry" />
        </mxCell>
        <mxCell id="EDuE6eJ9k3U34vcv7kun-81" value="" style="shape=partialRectangle;connectable=0;fillColor=none;top=0;left=0;bottom=0;right=0;editable=1;overflow=hidden;whiteSpace=wrap;html=1;" vertex="1" parent="EDuE6eJ9k3U34vcv7kun-80">
          <mxGeometry width="30" height="90" as="geometry">
            <mxRectangle width="30" height="90" as="alternateBounds" />
          </mxGeometry>
        </mxCell>
        <mxCell id="EDuE6eJ9k3U34vcv7kun-82" value="+ Name&lt;div&gt;+ Vorname&lt;/div&gt;&lt;div&gt;+ Herkunft&lt;/div&gt;" style="shape=partialRectangle;connectable=0;fillColor=none;top=0;left=0;bottom=0;right=0;align=left;spacingLeft=6;overflow=hidden;whiteSpace=wrap;html=1;" vertex="1" parent="EDuE6eJ9k3U34vcv7kun-80">
          <mxGeometry x="30" width="150" height="90" as="geometry">
            <mxRectangle width="150" height="90" as="alternateBounds" />
          </mxGeometry>
        </mxCell>
        <mxCell id="EDuE6eJ9k3U34vcv7kun-83" value="" style="shape=tableRow;horizontal=0;startSize=0;swimlaneHead=0;swimlaneBody=0;fillColor=none;collapsible=0;dropTarget=0;points=[[0,0.5],[1,0.5]];portConstraint=eastwest;top=0;left=0;right=0;bottom=0;" vertex="1" parent="EDuE6eJ9k3U34vcv7kun-76">
          <mxGeometry y="150" width="180" height="20" as="geometry" />
        </mxCell>
        <mxCell id="EDuE6eJ9k3U34vcv7kun-84" value="" style="shape=partialRectangle;connectable=0;fillColor=none;top=0;left=0;bottom=0;right=0;editable=1;overflow=hidden;whiteSpace=wrap;html=1;" vertex="1" parent="EDuE6eJ9k3U34vcv7kun-83">
          <mxGeometry width="30" height="20" as="geometry">
            <mxRectangle width="30" height="20" as="alternateBounds" />
          </mxGeometry>
        </mxCell>
        <mxCell id="EDuE6eJ9k3U34vcv7kun-85" value="" style="shape=partialRectangle;connectable=0;fillColor=none;top=0;left=0;bottom=0;right=0;align=left;spacingLeft=6;overflow=hidden;whiteSpace=wrap;html=1;" vertex="1" parent="EDuE6eJ9k3U34vcv7kun-83">
          <mxGeometry x="30" width="150" height="20" as="geometry">
            <mxRectangle width="150" height="20" as="alternateBounds" />
          </mxGeometry>
        </mxCell>
        <mxCell id="EDuE6eJ9k3U34vcv7kun-86" value="" style="edgeStyle=entityRelationEdgeStyle;fontSize=12;html=1;endArrow=ERmany;rounded=0;entryX=0;entryY=0.5;entryDx=0;entryDy=0;exitX=1.002;exitY=0.742;exitDx=0;exitDy=0;exitPerimeter=0;" edge="1" parent="1" source="EDuE6eJ9k3U34vcv7kun-13" target="EDuE6eJ9k3U34vcv7kun-91">
          <mxGeometry width="100" height="100" relative="1" as="geometry">
            <mxPoint x="1190" y="337" as="sourcePoint" />
            <mxPoint x="880" y="397.49999999999955" as="targetPoint" />
          </mxGeometry>
        </mxCell>
        <mxCell id="EDuE6eJ9k3U34vcv7kun-87" value="Bewertung" style="shape=table;startSize=30;container=1;collapsible=1;childLayout=tableLayout;fixedRows=1;rowLines=0;fontStyle=1;align=center;resizeLast=1;html=1;whiteSpace=wrap;" vertex="1" parent="1">
          <mxGeometry x="875" y="340" width="180" height="130.0000000000009" as="geometry" />
        </mxCell>
        <mxCell id="EDuE6eJ9k3U34vcv7kun-88" value="" style="shape=tableRow;horizontal=0;startSize=0;swimlaneHead=0;swimlaneBody=0;fillColor=none;collapsible=0;dropTarget=0;points=[[0,0.5],[1,0.5]];portConstraint=eastwest;top=0;left=0;right=0;bottom=0;html=1;" vertex="1" parent="EDuE6eJ9k3U34vcv7kun-87">
          <mxGeometry y="30" width="180" height="30" as="geometry" />
        </mxCell>
        <mxCell id="EDuE6eJ9k3U34vcv7kun-89" value="PK,FK1" style="shape=partialRectangle;connectable=0;fillColor=none;top=0;left=0;bottom=0;right=0;fontStyle=1;overflow=hidden;html=1;whiteSpace=wrap;" vertex="1" parent="EDuE6eJ9k3U34vcv7kun-88">
          <mxGeometry width="60" height="30" as="geometry">
            <mxRectangle width="60" height="30" as="alternateBounds" />
          </mxGeometry>
        </mxCell>
        <mxCell id="EDuE6eJ9k3U34vcv7kun-90" value="Kunden-ID" style="shape=partialRectangle;connectable=0;fillColor=none;top=0;left=0;bottom=0;right=0;align=left;spacingLeft=6;fontStyle=5;overflow=hidden;html=1;whiteSpace=wrap;" vertex="1" parent="EDuE6eJ9k3U34vcv7kun-88">
          <mxGeometry x="60" width="120" height="30" as="geometry">
            <mxRectangle width="120" height="30" as="alternateBounds" />
          </mxGeometry>
        </mxCell>
        <mxCell id="EDuE6eJ9k3U34vcv7kun-91" value="" style="shape=tableRow;horizontal=0;startSize=0;swimlaneHead=0;swimlaneBody=0;fillColor=none;collapsible=0;dropTarget=0;points=[[0,0.5],[1,0.5]];portConstraint=eastwest;top=0;left=0;right=0;bottom=1;html=1;" vertex="1" parent="EDuE6eJ9k3U34vcv7kun-87">
          <mxGeometry y="60" width="180" height="30" as="geometry" />
        </mxCell>
        <mxCell id="EDuE6eJ9k3U34vcv7kun-92" value="PK,FK2" style="shape=partialRectangle;connectable=0;fillColor=none;top=0;left=0;bottom=0;right=0;fontStyle=1;overflow=hidden;html=1;whiteSpace=wrap;" vertex="1" parent="EDuE6eJ9k3U34vcv7kun-91">
          <mxGeometry width="60" height="30" as="geometry">
            <mxRectangle width="60" height="30" as="alternateBounds" />
          </mxGeometry>
        </mxCell>
        <mxCell id="EDuE6eJ9k3U34vcv7kun-93" value="Buch-ID" style="shape=partialRectangle;connectable=0;fillColor=none;top=0;left=0;bottom=0;right=0;align=left;spacingLeft=6;fontStyle=5;overflow=hidden;html=1;whiteSpace=wrap;" vertex="1" parent="EDuE6eJ9k3U34vcv7kun-91">
          <mxGeometry x="60" width="120" height="30" as="geometry">
            <mxRectangle width="120" height="30" as="alternateBounds" />
          </mxGeometry>
        </mxCell>
        <mxCell id="EDuE6eJ9k3U34vcv7kun-94" value="" style="shape=tableRow;horizontal=0;startSize=0;swimlaneHead=0;swimlaneBody=0;fillColor=none;collapsible=0;dropTarget=0;points=[[0,0.5],[1,0.5]];portConstraint=eastwest;top=0;left=0;right=0;bottom=0;html=1;" vertex="1" parent="EDuE6eJ9k3U34vcv7kun-87">
          <mxGeometry y="90" width="180" height="40" as="geometry" />
        </mxCell>
        <mxCell id="EDuE6eJ9k3U34vcv7kun-95" value="" style="shape=partialRectangle;connectable=0;fillColor=none;top=0;left=0;bottom=0;right=0;editable=1;overflow=hidden;html=1;whiteSpace=wrap;" vertex="1" parent="EDuE6eJ9k3U34vcv7kun-94">
          <mxGeometry width="60" height="40" as="geometry">
            <mxRectangle width="60" height="40" as="alternateBounds" />
          </mxGeometry>
        </mxCell>
        <mxCell id="EDuE6eJ9k3U34vcv7kun-96" value="+Wertung: Int&lt;div&gt;+Rezension: String&lt;/div&gt;" style="shape=partialRectangle;connectable=0;fillColor=none;top=0;left=0;bottom=0;right=0;align=left;spacingLeft=6;overflow=hidden;html=1;whiteSpace=wrap;" vertex="1" parent="EDuE6eJ9k3U34vcv7kun-94">
          <mxGeometry x="60" width="120" height="40" as="geometry">
            <mxRectangle width="120" height="40" as="alternateBounds" />
          </mxGeometry>
        </mxCell>
        <mxCell id="EDuE6eJ9k3U34vcv7kun-97" value="Leihe" style="shape=table;startSize=20;container=1;collapsible=1;childLayout=tableLayout;fixedRows=1;rowLines=0;fontStyle=1;align=center;resizeLast=1;html=1;" vertex="1" parent="1">
          <mxGeometry x="860" y="40" width="180" height="190" as="geometry" />
        </mxCell>
        <mxCell id="EDuE6eJ9k3U34vcv7kun-98" value="" style="shape=tableRow;horizontal=0;startSize=0;swimlaneHead=0;swimlaneBody=0;fillColor=none;collapsible=0;dropTarget=0;points=[[0,0.5],[1,0.5]];portConstraint=eastwest;top=0;left=0;right=0;bottom=1;" vertex="1" parent="EDuE6eJ9k3U34vcv7kun-97">
          <mxGeometry y="20" width="180" height="30" as="geometry" />
        </mxCell>
        <mxCell id="EDuE6eJ9k3U34vcv7kun-99" value="PK" style="shape=partialRectangle;connectable=0;fillColor=none;top=0;left=0;bottom=0;right=0;fontStyle=1;overflow=hidden;whiteSpace=wrap;html=1;" vertex="1" parent="EDuE6eJ9k3U34vcv7kun-98">
          <mxGeometry width="30" height="30" as="geometry">
            <mxRectangle width="30" height="30" as="alternateBounds" />
          </mxGeometry>
        </mxCell>
        <mxCell id="EDuE6eJ9k3U34vcv7kun-100" value="Leih-ID" style="shape=partialRectangle;connectable=0;fillColor=none;top=0;left=0;bottom=0;right=0;align=left;spacingLeft=6;fontStyle=5;overflow=hidden;whiteSpace=wrap;html=1;" vertex="1" parent="EDuE6eJ9k3U34vcv7kun-98">
          <mxGeometry x="30" width="150" height="30" as="geometry">
            <mxRectangle width="150" height="30" as="alternateBounds" />
          </mxGeometry>
        </mxCell>
        <mxCell id="EDuE6eJ9k3U34vcv7kun-101" value="" style="shape=tableRow;horizontal=0;startSize=0;swimlaneHead=0;swimlaneBody=0;fillColor=none;collapsible=0;dropTarget=0;points=[[0,0.5],[1,0.5]];portConstraint=eastwest;top=0;left=0;right=0;bottom=0;" vertex="1" parent="EDuE6eJ9k3U34vcv7kun-97">
          <mxGeometry y="50" width="180" height="50" as="geometry" />
        </mxCell>
        <mxCell id="EDuE6eJ9k3U34vcv7kun-102" value="FK&lt;div&gt;FK&lt;/div&gt;" style="shape=partialRectangle;connectable=0;fillColor=none;top=0;left=0;bottom=0;right=0;editable=1;overflow=hidden;whiteSpace=wrap;html=1;" vertex="1" parent="EDuE6eJ9k3U34vcv7kun-101">
          <mxGeometry width="30" height="50" as="geometry">
            <mxRectangle width="30" height="50" as="alternateBounds" />
          </mxGeometry>
        </mxCell>
        <mxCell id="EDuE6eJ9k3U34vcv7kun-103" value="Kunden-ID&lt;div&gt;Exemplar-ID&lt;/div&gt;" style="shape=partialRectangle;connectable=0;fillColor=none;top=0;left=0;bottom=0;right=0;align=left;spacingLeft=6;overflow=hidden;whiteSpace=wrap;html=1;" vertex="1" parent="EDuE6eJ9k3U34vcv7kun-101">
          <mxGeometry x="30" width="150" height="50" as="geometry">
            <mxRectangle width="150" height="50" as="alternateBounds" />
          </mxGeometry>
        </mxCell>
        <mxCell id="EDuE6eJ9k3U34vcv7kun-104" value="" style="shape=tableRow;horizontal=0;startSize=0;swimlaneHead=0;swimlaneBody=0;fillColor=none;collapsible=0;dropTarget=0;points=[[0,0.5],[1,0.5]];portConstraint=eastwest;top=0;left=0;right=0;bottom=0;" vertex="1" parent="EDuE6eJ9k3U34vcv7kun-97">
          <mxGeometry y="100" width="180" height="80" as="geometry" />
        </mxCell>
        <mxCell id="EDuE6eJ9k3U34vcv7kun-105" value="" style="shape=partialRectangle;connectable=0;fillColor=none;top=0;left=0;bottom=0;right=0;editable=1;overflow=hidden;whiteSpace=wrap;html=1;" vertex="1" parent="EDuE6eJ9k3U34vcv7kun-104">
          <mxGeometry width="30" height="80" as="geometry">
            <mxRectangle width="30" height="80" as="alternateBounds" />
          </mxGeometry>
        </mxCell>
        <mxCell id="EDuE6eJ9k3U34vcv7kun-106" value="&lt;div style=&quot;text-wrap: nowrap;&quot;&gt;+Ausleihdatum: Date&lt;/div&gt;&lt;div style=&quot;text-wrap: nowrap;&quot;&gt;+RÃ¼ckabedatum: Date&lt;br&gt;&lt;/div&gt;&lt;div style=&quot;text-wrap: nowrap;&quot;&gt;+VerlÃ¤ngerungsstatus: Int&lt;/div&gt;&lt;div style=&quot;text-wrap: nowrap;&quot;&gt;+Mahnstatus: Int&lt;/div&gt;&lt;div style=&quot;text-wrap: nowrap;&quot;&gt;+Fernleihe: bool&lt;/div&gt;" style="shape=partialRectangle;connectable=0;fillColor=none;top=0;left=0;bottom=0;right=0;align=left;spacingLeft=6;overflow=hidden;whiteSpace=wrap;html=1;" vertex="1" parent="EDuE6eJ9k3U34vcv7kun-104">
          <mxGeometry x="30" width="150" height="80" as="geometry">
            <mxRectangle width="150" height="80" as="alternateBounds" />
          </mxGeometry>
        </mxCell>
        <mxCell id="EDuE6eJ9k3U34vcv7kun-107" value="Exemplar" style="shape=table;startSize=20;container=1;collapsible=1;childLayout=tableLayout;fixedRows=1;rowLines=0;fontStyle=1;align=center;resizeLast=1;html=1;" vertex="1" parent="1">
          <mxGeometry x="1180" y="-30" width="180" height="150" as="geometry" />
        </mxCell>
        <mxCell id="EDuE6eJ9k3U34vcv7kun-108" value="" style="shape=tableRow;horizontal=0;startSize=0;swimlaneHead=0;swimlaneBody=0;fillColor=none;collapsible=0;dropTarget=0;points=[[0,0.5],[1,0.5]];portConstraint=eastwest;top=0;left=0;right=0;bottom=1;" vertex="1" parent="EDuE6eJ9k3U34vcv7kun-107">
          <mxGeometry y="20" width="180" height="30" as="geometry" />
        </mxCell>
        <mxCell id="EDuE6eJ9k3U34vcv7kun-109" value="PK" style="shape=partialRectangle;connectable=0;fillColor=none;top=0;left=0;bottom=0;right=0;fontStyle=1;overflow=hidden;whiteSpace=wrap;html=1;" vertex="1" parent="EDuE6eJ9k3U34vcv7kun-108">
          <mxGeometry width="30" height="30" as="geometry">
            <mxRectangle width="30" height="30" as="alternateBounds" />
          </mxGeometry>
        </mxCell>
        <mxCell id="EDuE6eJ9k3U34vcv7kun-110" value="Exemplar-ID" style="shape=partialRectangle;connectable=0;fillColor=none;top=0;left=0;bottom=0;right=0;align=left;spacingLeft=6;fontStyle=5;overflow=hidden;whiteSpace=wrap;html=1;" vertex="1" parent="EDuE6eJ9k3U34vcv7kun-108">
          <mxGeometry x="30" width="150" height="30" as="geometry">
            <mxRectangle width="150" height="30" as="alternateBounds" />
          </mxGeometry>
        </mxCell>
        <mxCell id="EDuE6eJ9k3U34vcv7kun-111" value="" style="shape=tableRow;horizontal=0;startSize=0;swimlaneHead=0;swimlaneBody=0;fillColor=none;collapsible=0;dropTarget=0;points=[[0,0.5],[1,0.5]];portConstraint=eastwest;top=0;left=0;right=0;bottom=0;" vertex="1" parent="EDuE6eJ9k3U34vcv7kun-107">
          <mxGeometry y="50" width="180" height="30" as="geometry" />
        </mxCell>
        <mxCell id="EDuE6eJ9k3U34vcv7kun-112" value="FK" style="shape=partialRectangle;connectable=0;fillColor=none;top=0;left=0;bottom=0;right=0;editable=1;overflow=hidden;whiteSpace=wrap;html=1;" vertex="1" parent="EDuE6eJ9k3U34vcv7kun-111">
          <mxGeometry width="30" height="30" as="geometry">
            <mxRectangle width="30" height="30" as="alternateBounds" />
          </mxGeometry>
        </mxCell>
        <mxCell id="EDuE6eJ9k3U34vcv7kun-113" value="Buch-ID" style="shape=partialRectangle;connectable=0;fillColor=none;top=0;left=0;bottom=0;right=0;align=left;spacingLeft=6;overflow=hidden;whiteSpace=wrap;html=1;" vertex="1" parent="EDuE6eJ9k3U34vcv7kun-111">
          <mxGeometry x="30" width="150" height="30" as="geometry">
            <mxRectangle width="150" height="30" as="alternateBounds" />
          </mxGeometry>
        </mxCell>
        <mxCell id="EDuE6eJ9k3U34vcv7kun-114" value="" style="shape=tableRow;horizontal=0;startSize=0;swimlaneHead=0;swimlaneBody=0;fillColor=none;collapsible=0;dropTarget=0;points=[[0,0.5],[1,0.5]];portConstraint=eastwest;top=0;left=0;right=0;bottom=0;" vertex="1" parent="EDuE6eJ9k3U34vcv7kun-107">
          <mxGeometry y="80" width="180" height="60" as="geometry" />
        </mxCell>
        <mxCell id="EDuE6eJ9k3U34vcv7kun-115" value="" style="shape=partialRectangle;connectable=0;fillColor=none;top=0;left=0;bottom=0;right=0;editable=1;overflow=hidden;whiteSpace=wrap;html=1;" vertex="1" parent="EDuE6eJ9k3U34vcv7kun-114">
          <mxGeometry width="30" height="60" as="geometry">
            <mxRectangle width="30" height="60" as="alternateBounds" />
          </mxGeometry>
        </mxCell>
        <mxCell id="EDuE6eJ9k3U34vcv7kun-116" value="&lt;div style=&quot;text-wrap: nowrap;&quot;&gt;+Kennung&lt;div&gt;+Zugriffsort&lt;/div&gt;&lt;div&gt;+Zustand&lt;/div&gt;&lt;/div&gt;" style="shape=partialRectangle;connectable=0;fillColor=none;top=0;left=0;bottom=0;right=0;align=left;spacingLeft=6;overflow=hidden;whiteSpace=wrap;html=1;" vertex="1" parent="EDuE6eJ9k3U34vcv7kun-114">
          <mxGeometry x="30" width="150" height="60" as="geometry">
            <mxRectangle width="150" height="60" as="alternateBounds" />
          </mxGeometry>
        </mxCell>
      </root>
    </mxGraphModel>
  </diagram>
  <diagram name="Seite-1" id="VV_5cOx7v1Rb94gDrbX1">
    <mxGraphModel dx="1794" dy="853" grid="1" gridSize="10" guides="1" tooltips="1" connect="1" arrows="1" fold="1" page="1" pageScale="1" pageWidth="827" pageHeight="1169" math="0" shadow="0">
      <root>
        <mxCell id="0" />
        <mxCell id="1" parent="0" />
        <mxCell id="PdJgZ3bpBNHU7YQD6h9L-1" value="Kunde" style="whiteSpace=wrap;html=1;align=center;" parent="1" vertex="1">
          <mxGeometry x="245" y="645" width="100" height="40" as="geometry" />
        </mxCell>
        <mxCell id="PdJgZ3bpBNHU7YQD6h9L-2" value="Exemplar" style="whiteSpace=wrap;html=1;align=center;" parent="1" vertex="1">
          <mxGeometry x="625" y="590" width="100" height="40" as="geometry" />
        </mxCell>
        <mxCell id="PdJgZ3bpBNHU7YQD6h9L-3" value="Bewertung" style="whiteSpace=wrap;html=1;align=center;" parent="1" vertex="1">
          <mxGeometry x="405" y="825" width="100" height="40" as="geometry" />
        </mxCell>
        <mxCell id="4-qaSDnyR9620rbuvGyb-1" value="" style="endArrow=none;html=1;rounded=0;exitX=0.68;exitY=0.033;exitDx=0;exitDy=0;exitPerimeter=0;" parent="1" source="4-qaSDnyR9620rbuvGyb-2" edge="1">
          <mxGeometry width="50" height="50" relative="1" as="geometry">
            <mxPoint x="515" y="785" as="sourcePoint" />
            <mxPoint x="645" y="740" as="targetPoint" />
          </mxGeometry>
        </mxCell>
        <mxCell id="4-qaSDnyR9620rbuvGyb-3" value="" style="endArrow=none;html=1;rounded=0;entryX=0.5;entryY=1;entryDx=0;entryDy=0;exitX=0.353;exitY=0.05;exitDx=0;exitDy=0;exitPerimeter=0;" parent="1" source="PdJgZ3bpBNHU7YQD6h9L-3" target="PdJgZ3bpBNHU7YQD6h9L-1" edge="1">
          <mxGeometry width="50" height="50" relative="1" as="geometry">
            <mxPoint x="515" y="785" as="sourcePoint" />
            <mxPoint x="565" y="735" as="targetPoint" />
          </mxGeometry>
        </mxCell>
        <mxCell id="4-qaSDnyR9620rbuvGyb-4" value="schreibt" style="edgeLabel;html=1;align=center;verticalAlign=middle;resizable=0;points=[];" parent="4-qaSDnyR9620rbuvGyb-3" vertex="1" connectable="0">
          <mxGeometry x="-0.0556" y="1" relative="1" as="geometry">
            <mxPoint as="offset" />
          </mxGeometry>
        </mxCell>
        <mxCell id="4-qaSDnyR9620rbuvGyb-5" value="Kunde" style="whiteSpace=wrap;html=1;align=center;" parent="1" vertex="1">
          <mxGeometry x="220" y="135" width="100" height="75" as="geometry" />
        </mxCell>
        <mxCell id="4-qaSDnyR9620rbuvGyb-6" value="Exemplare" style="whiteSpace=wrap;html=1;align=center;" parent="1" vertex="1">
          <mxGeometry x="530" y="135" width="100" height="85" as="geometry" />
        </mxCell>
        <mxCell id="4-qaSDnyR9620rbuvGyb-8" value="" style="line;strokeWidth=1;rotatable=0;dashed=0;labelPosition=right;align=left;verticalAlign=middle;spacingTop=0;spacingLeft=6;points=[];portConstraint=eastwest;" parent="1" vertex="1">
          <mxGeometry x="320" y="150" width="210" height="10" as="geometry" />
        </mxCell>
        <mxCell id="4-qaSDnyR9620rbuvGyb-9" value="leiht" style="text;html=1;align=center;verticalAlign=middle;whiteSpace=wrap;rounded=0;" parent="1" vertex="1">
          <mxGeometry x="390" y="130" width="60" height="30" as="geometry" />
        </mxCell>
        <mxCell id="4-qaSDnyR9620rbuvGyb-12" value="" style="endArrow=none;html=1;rounded=0;entryX=1;entryY=0.75;entryDx=0;entryDy=0;exitX=0;exitY=0.662;exitDx=0;exitDy=0;exitPerimeter=0;" parent="1" source="4-qaSDnyR9620rbuvGyb-6" target="4-qaSDnyR9620rbuvGyb-5" edge="1">
          <mxGeometry width="50" height="50" relative="1" as="geometry">
            <mxPoint x="530" y="175" as="sourcePoint" />
            <mxPoint x="330" y="180" as="targetPoint" />
          </mxGeometry>
        </mxCell>
        <mxCell id="4-qaSDnyR9620rbuvGyb-13" value="schreibt Bewertung fÃ¼r" style="edgeLabel;html=1;align=center;verticalAlign=middle;resizable=0;points=[];" parent="4-qaSDnyR9620rbuvGyb-12" vertex="1" connectable="0">
          <mxGeometry x="-0.0556" y="1" relative="1" as="geometry">
            <mxPoint as="offset" />
          </mxGeometry>
        </mxCell>
        <mxCell id="4-qaSDnyR9620rbuvGyb-14" value="Leihe" style="whiteSpace=wrap;html=1;align=center;" parent="1" vertex="1">
          <mxGeometry x="430" y="520" width="100" height="40" as="geometry" />
        </mxCell>
        <mxCell id="4-qaSDnyR9620rbuvGyb-15" value="" style="endArrow=none;html=1;rounded=0;exitX=0.433;exitY=-0.008;exitDx=0;exitDy=0;exitPerimeter=0;entryX=0;entryY=0.5;entryDx=0;entryDy=0;" parent="1" source="PdJgZ3bpBNHU7YQD6h9L-1" edge="1" target="4-qaSDnyR9620rbuvGyb-14">
          <mxGeometry width="50" height="50" relative="1" as="geometry">
            <mxPoint x="350" y="570" as="sourcePoint" />
            <mxPoint x="400" y="520" as="targetPoint" />
          </mxGeometry>
        </mxCell>
        <mxCell id="4-qaSDnyR9620rbuvGyb-18" value="macht" style="edgeLabel;html=1;align=center;verticalAlign=middle;resizable=0;points=[];" parent="4-qaSDnyR9620rbuvGyb-15" vertex="1" connectable="0">
          <mxGeometry x="-0.0513" y="-3" relative="1" as="geometry">
            <mxPoint as="offset" />
          </mxGeometry>
        </mxCell>
        <mxCell id="4-qaSDnyR9620rbuvGyb-16" value="" style="endArrow=none;html=1;rounded=0;entryX=1;entryY=0.5;entryDx=0;entryDy=0;exitX=0.5;exitY=0;exitDx=0;exitDy=0;" parent="1" source="PdJgZ3bpBNHU7YQD6h9L-2" target="4-qaSDnyR9620rbuvGyb-14" edge="1">
          <mxGeometry width="50" height="50" relative="1" as="geometry">
            <mxPoint x="525" y="670" as="sourcePoint" />
            <mxPoint x="575" y="620" as="targetPoint" />
          </mxGeometry>
        </mxCell>
        <mxCell id="4-qaSDnyR9620rbuvGyb-17" value="besteht aus / bezieht sich auf" style="edgeLabel;html=1;align=center;verticalAlign=middle;resizable=0;points=[];" parent="4-qaSDnyR9620rbuvGyb-16" vertex="1" connectable="0">
          <mxGeometry x="-0.0453" y="-1" relative="1" as="geometry">
            <mxPoint as="offset" />
          </mxGeometry>
        </mxCell>
        <mxCell id="R7dEPPRWiZphbXmBxnfp-1" value="" style="endArrow=none;html=1;rounded=0;exitX=0.68;exitY=0.033;exitDx=0;exitDy=0;exitPerimeter=0;" parent="1" source="PdJgZ3bpBNHU7YQD6h9L-3" target="4-qaSDnyR9620rbuvGyb-2" edge="1">
          <mxGeometry width="50" height="50" relative="1" as="geometry">
            <mxPoint x="473" y="826" as="sourcePoint" />
            <mxPoint x="665" y="750" as="targetPoint" />
          </mxGeometry>
        </mxCell>
        <mxCell id="4-qaSDnyR9620rbuvGyb-2" value="bezieht sich auf" style="text;html=1;align=center;verticalAlign=middle;whiteSpace=wrap;rounded=0;" parent="1" vertex="1">
          <mxGeometry x="535" y="770" width="60" height="30" as="geometry" />
        </mxCell>
        <mxCell id="R7dEPPRWiZphbXmBxnfp-2" value="Titel" style="whiteSpace=wrap;html=1;align=center;" parent="1" vertex="1">
          <mxGeometry x="625" y="710" width="100" height="40" as="geometry" />
        </mxCell>
        <mxCell id="R7dEPPRWiZphbXmBxnfp-4" value="" style="endArrow=none;html=1;rounded=0;entryX=0.5;entryY=1;entryDx=0;entryDy=0;exitX=0.5;exitY=0;exitDx=0;exitDy=0;" parent="1" source="R7dEPPRWiZphbXmBxnfp-2" target="PdJgZ3bpBNHU7YQD6h9L-2" edge="1">
          <mxGeometry width="50" height="50" relative="1" as="geometry">
            <mxPoint x="475" y="740" as="sourcePoint" />
            <mxPoint x="525" y="690" as="targetPoint" />
          </mxGeometry>
        </mxCell>
        <mxCell id="R7dEPPRWiZphbXmBxnfp-5" value="ist Exemplar von" style="edgeLabel;html=1;align=center;verticalAlign=middle;resizable=0;points=[];" parent="R7dEPPRWiZphbXmBxnfp-4" vertex="1" connectable="0">
          <mxGeometry x="0.1878" y="2" relative="1" as="geometry">
            <mxPoint x="2" y="14" as="offset" />
          </mxGeometry>
        </mxCell>
        <mxCell id="jY_bi10FbZn5001IJYc1-6" value="Autor" style="rounded=0;whiteSpace=wrap;html=1;" vertex="1" parent="1">
          <mxGeometry x="805" y="710" width="110" height="40" as="geometry" />
        </mxCell>
        <mxCell id="jY_bi10FbZn5001IJYc1-9" value="" style="endArrow=none;html=1;rounded=0;exitX=1;exitY=0.5;exitDx=0;exitDy=0;entryX=0;entryY=0.5;entryDx=0;entryDy=0;" edge="1" parent="1" source="R7dEPPRWiZphbXmBxnfp-2" target="jY_bi10FbZn5001IJYc1-6">
          <mxGeometry width="50" height="50" relative="1" as="geometry">
            <mxPoint x="515" y="680" as="sourcePoint" />
            <mxPoint x="795" y="730" as="targetPoint" />
          </mxGeometry>
        </mxCell>
        <mxCell id="jY_bi10FbZn5001IJYc1-10" value="hat" style="edgeLabel;html=1;align=center;verticalAlign=middle;resizable=0;points=[];" vertex="1" connectable="0" parent="jY_bi10FbZn5001IJYc1-9">
          <mxGeometry x="0.235" y="-2" relative="1" as="geometry">
            <mxPoint x="-9" y="-2" as="offset" />
          </mxGeometry>
        </mxCell>
        <mxCell id="jY_bi10FbZn5001IJYc1-11" value="Beitragszahlungen" style="rounded=0;whiteSpace=wrap;html=1;" vertex="1" parent="1">
          <mxGeometry x="135" y="790" width="110" height="55" as="geometry" />
        </mxCell>
        <mxCell id="jY_bi10FbZn5001IJYc1-13" value="" style="endArrow=none;html=1;rounded=0;entryX=0.25;entryY=1;entryDx=0;entryDy=0;exitX=0.5;exitY=0;exitDx=0;exitDy=0;" edge="1" parent="1" source="jY_bi10FbZn5001IJYc1-11" target="PdJgZ3bpBNHU7YQD6h9L-1">
          <mxGeometry width="50" height="50" relative="1" as="geometry">
            <mxPoint x="380" y="760" as="sourcePoint" />
            <mxPoint x="430" y="710" as="targetPoint" />
          </mxGeometry>
        </mxCell>
        <mxCell id="jY_bi10FbZn5001IJYc1-14" value="leistet" style="edgeLabel;html=1;align=center;verticalAlign=middle;resizable=0;points=[];" vertex="1" connectable="0" parent="jY_bi10FbZn5001IJYc1-13">
          <mxGeometry x="-0.0326" y="2" relative="1" as="geometry">
            <mxPoint as="offset" />
          </mxGeometry>
        </mxCell>
        <mxCell id="jY_bi10FbZn5001IJYc1-15" value="Mitgliedsstatus" style="rounded=0;whiteSpace=wrap;html=1;" vertex="1" parent="1">
          <mxGeometry x="80" y="642.5" width="90" height="45" as="geometry" />
        </mxCell>
        <mxCell id="jY_bi10FbZn5001IJYc1-17" value="" style="endArrow=none;html=1;rounded=0;entryX=1;entryY=0.5;entryDx=0;entryDy=0;exitX=0;exitY=0.5;exitDx=0;exitDy=0;" edge="1" parent="1" source="PdJgZ3bpBNHU7YQD6h9L-1" target="jY_bi10FbZn5001IJYc1-15">
          <mxGeometry width="50" height="50" relative="1" as="geometry">
            <mxPoint x="380" y="760" as="sourcePoint" />
            <mxPoint x="430" y="710" as="targetPoint" />
          </mxGeometry>
        </mxCell>
        <mxCell id="jY_bi10FbZn5001IJYc1-23" value="hat" style="edgeLabel;html=1;align=center;verticalAlign=middle;resizable=0;points=[];" vertex="1" connectable="0" parent="jY_bi10FbZn5001IJYc1-17">
          <mxGeometry x="-0.0773" y="2" relative="1" as="geometry">
            <mxPoint y="-2" as="offset" />
          </mxGeometry>
        </mxCell>
        <mxCell id="jY_bi10FbZn5001IJYc1-18" value="Zahlungen" style="rounded=0;whiteSpace=wrap;html=1;" vertex="1" parent="1">
          <mxGeometry x="305" y="380" width="100" height="40" as="geometry" />
        </mxCell>
        <mxCell id="jY_bi10FbZn5001IJYc1-20" value="" style="endArrow=none;html=1;rounded=0;entryX=0.5;entryY=1;entryDx=0;entryDy=0;exitX=0.5;exitY=0;exitDx=0;exitDy=0;" edge="1" parent="1" source="4-qaSDnyR9620rbuvGyb-14" target="jY_bi10FbZn5001IJYc1-18">
          <mxGeometry width="50" height="50" relative="1" as="geometry">
            <mxPoint x="380" y="560" as="sourcePoint" />
            <mxPoint x="430" y="510" as="targetPoint" />
          </mxGeometry>
        </mxCell>
        <mxCell id="jY_bi10FbZn5001IJYc1-21" value="beziehen sich auf" style="edgeLabel;html=1;align=center;verticalAlign=middle;resizable=0;points=[];" vertex="1" connectable="0" parent="jY_bi10FbZn5001IJYc1-20">
          <mxGeometry x="0.1" y="1" relative="1" as="geometry">
            <mxPoint as="offset" />
          </mxGeometry>
        </mxCell>
        <mxCell id="jY_bi10FbZn5001IJYc1-22" value="Sendungen" style="rounded=0;whiteSpace=wrap;html=1;" vertex="1" parent="1">
          <mxGeometry x="550" y="380" width="110" height="40" as="geometry" />
        </mxCell>
        <mxCell id="jY_bi10FbZn5001IJYc1-26" value="" style="endArrow=none;html=1;rounded=0;entryX=0.444;entryY=1.07;entryDx=0;entryDy=0;entryPerimeter=0;" edge="1" parent="1" target="jY_bi10FbZn5001IJYc1-22">
          <mxGeometry width="50" height="50" relative="1" as="geometry">
            <mxPoint x="480" y="520" as="sourcePoint" />
            <mxPoint x="430" y="510" as="targetPoint" />
          </mxGeometry>
        </mxCell>
      </root>
    </mxGraphModel>
  </diagram>
  <diagram id="yLpXWIAaZSYhVV9jA1g4" name="Seite-2">
    <mxGraphModel dx="3390" dy="2388" grid="1" gridSize="10" guides="1" tooltips="1" connect="1" arrows="1" fold="1" page="1" pageScale="1" pageWidth="827" pageHeight="1169" math="0" shadow="0">
      <root>
        <mxCell id="0" />
        <mxCell id="1" parent="0" />
        <mxCell id="ORbkIoWDMKpJv6V9F7-q-1" value="Kunde" style="whiteSpace=wrap;html=1;align=center;" parent="1" vertex="1">
          <mxGeometry x="80" y="-585" width="100" height="40" as="geometry" />
        </mxCell>
        <mxCell id="ORbkIoWDMKpJv6V9F7-q-2" value="Exemplar" style="whiteSpace=wrap;html=1;align=center;" parent="1" vertex="1">
          <mxGeometry x="460" y="-640" width="100" height="40" as="geometry" />
        </mxCell>
        <mxCell id="ORbkIoWDMKpJv6V9F7-q-3" value="Bewertung" style="whiteSpace=wrap;html=1;align=center;" parent="1" vertex="1">
          <mxGeometry x="240" y="-405" width="100" height="40" as="geometry" />
        </mxCell>
        <mxCell id="ORbkIoWDMKpJv6V9F7-q-4" value="" style="endArrow=none;html=1;rounded=0;exitX=0.68;exitY=0.033;exitDx=0;exitDy=0;exitPerimeter=0;" parent="1" source="ORbkIoWDMKpJv6V9F7-q-13" edge="1">
          <mxGeometry width="50" height="50" relative="1" as="geometry">
            <mxPoint x="350" y="-445" as="sourcePoint" />
            <mxPoint x="480" y="-490" as="targetPoint" />
          </mxGeometry>
        </mxCell>
        <mxCell id="ORbkIoWDMKpJv6V9F7-q-5" value="" style="endArrow=none;html=1;rounded=0;entryX=0.5;entryY=1;entryDx=0;entryDy=0;exitX=0.353;exitY=0.05;exitDx=0;exitDy=0;exitPerimeter=0;" parent="1" source="ORbkIoWDMKpJv6V9F7-q-3" target="ORbkIoWDMKpJv6V9F7-q-1" edge="1">
          <mxGeometry width="50" height="50" relative="1" as="geometry">
            <mxPoint x="350" y="-445" as="sourcePoint" />
            <mxPoint x="400" y="-495" as="targetPoint" />
          </mxGeometry>
        </mxCell>
        <mxCell id="ORbkIoWDMKpJv6V9F7-q-6" value="schreibt" style="edgeLabel;html=1;align=center;verticalAlign=middle;resizable=0;points=[];" parent="ORbkIoWDMKpJv6V9F7-q-5" vertex="1" connectable="0">
          <mxGeometry x="-0.0556" y="1" relative="1" as="geometry">
            <mxPoint as="offset" />
          </mxGeometry>
        </mxCell>
        <mxCell id="ORbkIoWDMKpJv6V9F7-q-7" value="Leihe" style="whiteSpace=wrap;html=1;align=center;" parent="1" vertex="1">
          <mxGeometry x="235" y="-730" width="100" height="40" as="geometry" />
        </mxCell>
        <mxCell id="ORbkIoWDMKpJv6V9F7-q-8" value="" style="endArrow=none;html=1;rounded=0;exitX=0.433;exitY=-0.008;exitDx=0;exitDy=0;exitPerimeter=0;" parent="1" source="ORbkIoWDMKpJv6V9F7-q-1" edge="1">
          <mxGeometry width="50" height="50" relative="1" as="geometry">
            <mxPoint x="185" y="-660" as="sourcePoint" />
            <mxPoint x="235" y="-710" as="targetPoint" />
          </mxGeometry>
        </mxCell>
        <mxCell id="ORbkIoWDMKpJv6V9F7-q-9" value="macht" style="edgeLabel;html=1;align=center;verticalAlign=middle;resizable=0;points=[];" parent="ORbkIoWDMKpJv6V9F7-q-8" vertex="1" connectable="0">
          <mxGeometry x="-0.0513" y="-3" relative="1" as="geometry">
            <mxPoint as="offset" />
          </mxGeometry>
        </mxCell>
        <mxCell id="ORbkIoWDMKpJv6V9F7-q-10" value="" style="endArrow=none;html=1;rounded=0;entryX=1;entryY=0.5;entryDx=0;entryDy=0;exitX=0.5;exitY=0;exitDx=0;exitDy=0;" parent="1" source="ORbkIoWDMKpJv6V9F7-q-2" target="ORbkIoWDMKpJv6V9F7-q-7" edge="1">
          <mxGeometry width="50" height="50" relative="1" as="geometry">
            <mxPoint x="360" y="-560" as="sourcePoint" />
            <mxPoint x="410" y="-610" as="targetPoint" />
          </mxGeometry>
        </mxCell>
        <mxCell id="ORbkIoWDMKpJv6V9F7-q-11" value="besteht aus / bezieht sich auf" style="edgeLabel;html=1;align=center;verticalAlign=middle;resizable=0;points=[];" parent="ORbkIoWDMKpJv6V9F7-q-10" vertex="1" connectable="0">
          <mxGeometry x="-0.0453" y="-1" relative="1" as="geometry">
            <mxPoint as="offset" />
          </mxGeometry>
        </mxCell>
        <mxCell id="ORbkIoWDMKpJv6V9F7-q-12" value="" style="endArrow=none;html=1;rounded=0;exitX=0.68;exitY=0.033;exitDx=0;exitDy=0;exitPerimeter=0;" parent="1" source="ORbkIoWDMKpJv6V9F7-q-3" target="ORbkIoWDMKpJv6V9F7-q-13" edge="1">
          <mxGeometry width="50" height="50" relative="1" as="geometry">
            <mxPoint x="308" y="-404" as="sourcePoint" />
            <mxPoint x="500" y="-480" as="targetPoint" />
          </mxGeometry>
        </mxCell>
        <mxCell id="ORbkIoWDMKpJv6V9F7-q-13" value="bezieht sich auf" style="text;html=1;align=center;verticalAlign=middle;whiteSpace=wrap;rounded=0;" parent="1" vertex="1">
          <mxGeometry x="370" y="-460" width="60" height="30" as="geometry" />
        </mxCell>
        <mxCell id="ORbkIoWDMKpJv6V9F7-q-14" value="Titel" style="whiteSpace=wrap;html=1;align=center;" parent="1" vertex="1">
          <mxGeometry x="460" y="-520" width="100" height="40" as="geometry" />
        </mxCell>
        <mxCell id="ORbkIoWDMKpJv6V9F7-q-15" value="" style="endArrow=none;html=1;rounded=0;entryX=0.5;entryY=1;entryDx=0;entryDy=0;exitX=0.5;exitY=0;exitDx=0;exitDy=0;" parent="1" source="ORbkIoWDMKpJv6V9F7-q-14" target="ORbkIoWDMKpJv6V9F7-q-2" edge="1">
          <mxGeometry width="50" height="50" relative="1" as="geometry">
            <mxPoint x="310" y="-490" as="sourcePoint" />
            <mxPoint x="360" y="-540" as="targetPoint" />
          </mxGeometry>
        </mxCell>
        <mxCell id="ORbkIoWDMKpJv6V9F7-q-16" value="ist Exemplar von" style="edgeLabel;html=1;align=center;verticalAlign=middle;resizable=0;points=[];" parent="ORbkIoWDMKpJv6V9F7-q-15" vertex="1" connectable="0">
          <mxGeometry x="0.1878" y="2" relative="1" as="geometry">
            <mxPoint x="2" y="14" as="offset" />
          </mxGeometry>
        </mxCell>
        <mxCell id="ORbkIoWDMKpJv6V9F7-q-22" value="" style="edgeStyle=entityRelationEdgeStyle;fontSize=12;html=1;endArrow=ERmany;rounded=0;entryX=0;entryY=1;entryDx=0;entryDy=0;exitX=1.006;exitY=0.239;exitDx=0;exitDy=0;exitPerimeter=0;entryPerimeter=0;" parent="1" target="lfR97x9AHYAny6RsblMl-18" edge="1" source="-D0VRMOkzKC7TL6TW5ba-64">
          <mxGeometry width="100" height="100" relative="1" as="geometry">
            <mxPoint x="745" y="140" as="sourcePoint" />
            <mxPoint x="879" y="-2.5" as="targetPoint" />
          </mxGeometry>
        </mxCell>
        <mxCell id="ORbkIoWDMKpJv6V9F7-q-23" value="" style="edgeStyle=entityRelationEdgeStyle;fontSize=12;html=1;endArrow=ERmany;rounded=0;exitX=-0.009;exitY=0.146;exitDx=0;exitDy=0;entryX=1;entryY=0.5;entryDx=0;entryDy=0;exitPerimeter=0;" parent="1" source="lfR97x9AHYAny6RsblMl-34" target="lfR97x9AHYAny6RsblMl-15" edge="1">
          <mxGeometry width="100" height="100" relative="1" as="geometry">
            <mxPoint x="1270" y="-2.5" as="sourcePoint" />
            <mxPoint x="1042.3599999999997" y="7.700000000000273" as="targetPoint" />
          </mxGeometry>
        </mxCell>
        <mxCell id="ORbkIoWDMKpJv6V9F7-q-25" value="" style="fontSize=12;html=1;endArrow=ERmany;rounded=0;exitX=0.5;exitY=0;exitDx=0;exitDy=0;entryX=0.5;entryY=1;entryDx=0;entryDy=0;" parent="1" source="-D0VRMOkzKC7TL6TW5ba-129" target="lfR97x9AHYAny6RsblMl-27" edge="1">
          <mxGeometry width="100" height="100" relative="1" as="geometry">
            <mxPoint x="1270" y="210" as="sourcePoint" />
            <mxPoint x="1270" y="160" as="targetPoint" />
          </mxGeometry>
        </mxCell>
        <mxCell id="ORbkIoWDMKpJv6V9F7-q-26" value="" style="edgeStyle=entityRelationEdgeStyle;fontSize=12;html=1;endArrow=ERmany;rounded=0;entryX=0.993;entryY=-0.004;entryDx=0;entryDy=0;exitX=0;exitY=0.5;exitDx=0;exitDy=0;entryPerimeter=0;" parent="1" target="-D0VRMOkzKC7TL6TW5ba-136" edge="1" source="-D0VRMOkzKC7TL6TW5ba-146">
          <mxGeometry width="100" height="100" relative="1" as="geometry">
            <mxPoint x="1396.08" y="410" as="sourcePoint" />
            <mxPoint x="1535" y="564.46" as="targetPoint" />
          </mxGeometry>
        </mxCell>
        <mxCell id="ORbkIoWDMKpJv6V9F7-q-27" value="" style="edgeStyle=entityRelationEdgeStyle;fontSize=12;html=1;endArrow=ERmany;rounded=0;entryX=1.006;entryY=0.229;entryDx=0;entryDy=0;exitX=-0.001;exitY=0.887;exitDx=0;exitDy=0;exitPerimeter=0;entryPerimeter=0;" parent="1" source="-D0VRMOkzKC7TL6TW5ba-133" target="lfR97x9AHYAny6RsblMl-5" edge="1">
          <mxGeometry width="100" height="100" relative="1" as="geometry">
            <mxPoint x="1170" y="310" as="sourcePoint" />
            <mxPoint x="1040" y="397.49999999999955" as="targetPoint" />
          </mxGeometry>
        </mxCell>
        <mxCell id="-D0VRMOkzKC7TL6TW5ba-1" value="Kunde" style="whiteSpace=wrap;html=1;align=center;" vertex="1" parent="1">
          <mxGeometry x="1055" y="-605" width="100" height="40" as="geometry" />
        </mxCell>
        <mxCell id="-D0VRMOkzKC7TL6TW5ba-2" value="Exemplar" style="whiteSpace=wrap;html=1;align=center;" vertex="1" parent="1">
          <mxGeometry x="1435" y="-660" width="100" height="40" as="geometry" />
        </mxCell>
        <mxCell id="-D0VRMOkzKC7TL6TW5ba-3" value="Bewertung" style="whiteSpace=wrap;html=1;align=center;" vertex="1" parent="1">
          <mxGeometry x="1215" y="-425" width="100" height="40" as="geometry" />
        </mxCell>
        <mxCell id="-D0VRMOkzKC7TL6TW5ba-4" value="" style="endArrow=none;html=1;rounded=0;exitX=0.68;exitY=0.033;exitDx=0;exitDy=0;exitPerimeter=0;" edge="1" parent="1" source="-D0VRMOkzKC7TL6TW5ba-13">
          <mxGeometry width="50" height="50" relative="1" as="geometry">
            <mxPoint x="1325" y="-465" as="sourcePoint" />
            <mxPoint x="1455" y="-510" as="targetPoint" />
          </mxGeometry>
        </mxCell>
        <mxCell id="-D0VRMOkzKC7TL6TW5ba-5" value="" style="endArrow=none;html=1;rounded=0;entryX=0.5;entryY=1;entryDx=0;entryDy=0;exitX=0.353;exitY=0.05;exitDx=0;exitDy=0;exitPerimeter=0;" edge="1" parent="1" source="-D0VRMOkzKC7TL6TW5ba-3" target="-D0VRMOkzKC7TL6TW5ba-1">
          <mxGeometry width="50" height="50" relative="1" as="geometry">
            <mxPoint x="1325" y="-465" as="sourcePoint" />
            <mxPoint x="1375" y="-515" as="targetPoint" />
          </mxGeometry>
        </mxCell>
        <mxCell id="-D0VRMOkzKC7TL6TW5ba-6" value="schreibt" style="edgeLabel;html=1;align=center;verticalAlign=middle;resizable=0;points=[];" vertex="1" connectable="0" parent="-D0VRMOkzKC7TL6TW5ba-5">
          <mxGeometry x="-0.0556" y="1" relative="1" as="geometry">
            <mxPoint as="offset" />
          </mxGeometry>
        </mxCell>
        <mxCell id="-D0VRMOkzKC7TL6TW5ba-7" value="Leihe" style="whiteSpace=wrap;html=1;align=center;" vertex="1" parent="1">
          <mxGeometry x="1240" y="-730" width="100" height="40" as="geometry" />
        </mxCell>
        <mxCell id="-D0VRMOkzKC7TL6TW5ba-8" value="" style="endArrow=none;html=1;rounded=0;exitX=0.433;exitY=-0.008;exitDx=0;exitDy=0;exitPerimeter=0;entryX=0;entryY=0.5;entryDx=0;entryDy=0;" edge="1" parent="1" source="-D0VRMOkzKC7TL6TW5ba-1" target="-D0VRMOkzKC7TL6TW5ba-7">
          <mxGeometry width="50" height="50" relative="1" as="geometry">
            <mxPoint x="1160" y="-680" as="sourcePoint" />
            <mxPoint x="1210" y="-730" as="targetPoint" />
          </mxGeometry>
        </mxCell>
        <mxCell id="-D0VRMOkzKC7TL6TW5ba-9" value="macht" style="edgeLabel;html=1;align=center;verticalAlign=middle;resizable=0;points=[];" vertex="1" connectable="0" parent="-D0VRMOkzKC7TL6TW5ba-8">
          <mxGeometry x="-0.0513" y="-3" relative="1" as="geometry">
            <mxPoint as="offset" />
          </mxGeometry>
        </mxCell>
        <mxCell id="-D0VRMOkzKC7TL6TW5ba-10" value="" style="endArrow=none;html=1;rounded=0;entryX=1;entryY=0.5;entryDx=0;entryDy=0;exitX=0.5;exitY=0;exitDx=0;exitDy=0;" edge="1" parent="1" source="-D0VRMOkzKC7TL6TW5ba-2" target="-D0VRMOkzKC7TL6TW5ba-7">
          <mxGeometry width="50" height="50" relative="1" as="geometry">
            <mxPoint x="1335" y="-580" as="sourcePoint" />
            <mxPoint x="1385" y="-630" as="targetPoint" />
          </mxGeometry>
        </mxCell>
        <mxCell id="-D0VRMOkzKC7TL6TW5ba-11" value="besteht aus / bezieht sich auf" style="edgeLabel;html=1;align=center;verticalAlign=middle;resizable=0;points=[];" vertex="1" connectable="0" parent="-D0VRMOkzKC7TL6TW5ba-10">
          <mxGeometry x="-0.0453" y="-1" relative="1" as="geometry">
            <mxPoint as="offset" />
          </mxGeometry>
        </mxCell>
        <mxCell id="-D0VRMOkzKC7TL6TW5ba-12" value="" style="endArrow=none;html=1;rounded=0;exitX=0.68;exitY=0.033;exitDx=0;exitDy=0;exitPerimeter=0;" edge="1" parent="1" source="-D0VRMOkzKC7TL6TW5ba-3" target="-D0VRMOkzKC7TL6TW5ba-13">
          <mxGeometry width="50" height="50" relative="1" as="geometry">
            <mxPoint x="1283" y="-424" as="sourcePoint" />
            <mxPoint x="1475" y="-500" as="targetPoint" />
          </mxGeometry>
        </mxCell>
        <mxCell id="-D0VRMOkzKC7TL6TW5ba-13" value="bezieht sich auf" style="text;html=1;align=center;verticalAlign=middle;whiteSpace=wrap;rounded=0;" vertex="1" parent="1">
          <mxGeometry x="1345" y="-480" width="60" height="30" as="geometry" />
        </mxCell>
        <mxCell id="-D0VRMOkzKC7TL6TW5ba-14" value="Titel" style="whiteSpace=wrap;html=1;align=center;" vertex="1" parent="1">
          <mxGeometry x="1435" y="-540" width="100" height="40" as="geometry" />
        </mxCell>
        <mxCell id="-D0VRMOkzKC7TL6TW5ba-15" value="" style="endArrow=none;html=1;rounded=0;entryX=0.5;entryY=1;entryDx=0;entryDy=0;exitX=0.5;exitY=0;exitDx=0;exitDy=0;" edge="1" parent="1" source="-D0VRMOkzKC7TL6TW5ba-14" target="-D0VRMOkzKC7TL6TW5ba-2">
          <mxGeometry width="50" height="50" relative="1" as="geometry">
            <mxPoint x="1285" y="-510" as="sourcePoint" />
            <mxPoint x="1335" y="-560" as="targetPoint" />
          </mxGeometry>
        </mxCell>
        <mxCell id="-D0VRMOkzKC7TL6TW5ba-16" value="ist Exemplar von" style="edgeLabel;html=1;align=center;verticalAlign=middle;resizable=0;points=[];" vertex="1" connectable="0" parent="-D0VRMOkzKC7TL6TW5ba-15">
          <mxGeometry x="0.1878" y="2" relative="1" as="geometry">
            <mxPoint x="2" y="14" as="offset" />
          </mxGeometry>
        </mxCell>
        <mxCell id="-D0VRMOkzKC7TL6TW5ba-17" value="Autor" style="rounded=0;whiteSpace=wrap;html=1;" vertex="1" parent="1">
          <mxGeometry x="1615" y="-540" width="110" height="40" as="geometry" />
        </mxCell>
        <mxCell id="-D0VRMOkzKC7TL6TW5ba-18" value="" style="endArrow=none;html=1;rounded=0;exitX=1;exitY=0.5;exitDx=0;exitDy=0;entryX=0;entryY=0.5;entryDx=0;entryDy=0;" edge="1" parent="1" source="-D0VRMOkzKC7TL6TW5ba-14" target="-D0VRMOkzKC7TL6TW5ba-17">
          <mxGeometry width="50" height="50" relative="1" as="geometry">
            <mxPoint x="1325" y="-570" as="sourcePoint" />
            <mxPoint x="1605" y="-520" as="targetPoint" />
          </mxGeometry>
        </mxCell>
        <mxCell id="-D0VRMOkzKC7TL6TW5ba-19" value="hat" style="edgeLabel;html=1;align=center;verticalAlign=middle;resizable=0;points=[];" vertex="1" connectable="0" parent="-D0VRMOkzKC7TL6TW5ba-18">
          <mxGeometry x="0.235" y="-2" relative="1" as="geometry">
            <mxPoint x="-9" y="-2" as="offset" />
          </mxGeometry>
        </mxCell>
        <mxCell id="-D0VRMOkzKC7TL6TW5ba-20" value="Beitragszahlungen" style="rounded=0;whiteSpace=wrap;html=1;" vertex="1" parent="1">
          <mxGeometry x="945" y="-460" width="110" height="55" as="geometry" />
        </mxCell>
        <mxCell id="-D0VRMOkzKC7TL6TW5ba-21" value="" style="endArrow=none;html=1;rounded=0;entryX=0.25;entryY=1;entryDx=0;entryDy=0;exitX=0.5;exitY=0;exitDx=0;exitDy=0;" edge="1" parent="1" source="-D0VRMOkzKC7TL6TW5ba-20" target="-D0VRMOkzKC7TL6TW5ba-1">
          <mxGeometry width="50" height="50" relative="1" as="geometry">
            <mxPoint x="1190" y="-490" as="sourcePoint" />
            <mxPoint x="1240" y="-540" as="targetPoint" />
          </mxGeometry>
        </mxCell>
        <mxCell id="-D0VRMOkzKC7TL6TW5ba-22" value="leistet" style="edgeLabel;html=1;align=center;verticalAlign=middle;resizable=0;points=[];" vertex="1" connectable="0" parent="-D0VRMOkzKC7TL6TW5ba-21">
          <mxGeometry x="-0.0326" y="2" relative="1" as="geometry">
            <mxPoint as="offset" />
          </mxGeometry>
        </mxCell>
        <mxCell id="-D0VRMOkzKC7TL6TW5ba-23" value="Mitgliedsstatus" style="rounded=0;whiteSpace=wrap;html=1;" vertex="1" parent="1">
          <mxGeometry x="890" y="-607.5" width="90" height="45" as="geometry" />
        </mxCell>
        <mxCell id="-D0VRMOkzKC7TL6TW5ba-24" value="" style="endArrow=none;html=1;rounded=0;entryX=1;entryY=0.5;entryDx=0;entryDy=0;exitX=0;exitY=0.5;exitDx=0;exitDy=0;" edge="1" parent="1" source="-D0VRMOkzKC7TL6TW5ba-1" target="-D0VRMOkzKC7TL6TW5ba-23">
          <mxGeometry width="50" height="50" relative="1" as="geometry">
            <mxPoint x="1190" y="-490" as="sourcePoint" />
            <mxPoint x="1240" y="-540" as="targetPoint" />
          </mxGeometry>
        </mxCell>
        <mxCell id="-D0VRMOkzKC7TL6TW5ba-25" value="hat" style="edgeLabel;html=1;align=center;verticalAlign=middle;resizable=0;points=[];" vertex="1" connectable="0" parent="-D0VRMOkzKC7TL6TW5ba-24">
          <mxGeometry x="-0.0773" y="2" relative="1" as="geometry">
            <mxPoint y="-2" as="offset" />
          </mxGeometry>
        </mxCell>
        <mxCell id="-D0VRMOkzKC7TL6TW5ba-26" value="Zahlungen" style="rounded=0;whiteSpace=wrap;html=1;" vertex="1" parent="1">
          <mxGeometry x="1115" y="-870" width="100" height="40" as="geometry" />
        </mxCell>
        <mxCell id="-D0VRMOkzKC7TL6TW5ba-27" value="" style="endArrow=none;html=1;rounded=0;entryX=0.5;entryY=1;entryDx=0;entryDy=0;exitX=0.5;exitY=0;exitDx=0;exitDy=0;" edge="1" parent="1" source="-D0VRMOkzKC7TL6TW5ba-7" target="-D0VRMOkzKC7TL6TW5ba-26">
          <mxGeometry width="50" height="50" relative="1" as="geometry">
            <mxPoint x="1190" y="-690" as="sourcePoint" />
            <mxPoint x="1240" y="-740" as="targetPoint" />
          </mxGeometry>
        </mxCell>
        <mxCell id="-D0VRMOkzKC7TL6TW5ba-28" value="beziehen sich auf" style="edgeLabel;html=1;align=center;verticalAlign=middle;resizable=0;points=[];" vertex="1" connectable="0" parent="-D0VRMOkzKC7TL6TW5ba-27">
          <mxGeometry x="0.1" y="1" relative="1" as="geometry">
            <mxPoint as="offset" />
          </mxGeometry>
        </mxCell>
        <mxCell id="-D0VRMOkzKC7TL6TW5ba-29" value="Sendungen" style="rounded=0;whiteSpace=wrap;html=1;" vertex="1" parent="1">
          <mxGeometry x="1360" y="-870" width="110" height="40" as="geometry" />
        </mxCell>
        <mxCell id="-D0VRMOkzKC7TL6TW5ba-30" value="" style="endArrow=none;html=1;rounded=0;entryX=0.441;entryY=0.994;entryDx=0;entryDy=0;entryPerimeter=0;" edge="1" parent="1" target="-D0VRMOkzKC7TL6TW5ba-29">
          <mxGeometry width="50" height="50" relative="1" as="geometry">
            <mxPoint x="1290" y="-730" as="sourcePoint" />
            <mxPoint x="1240" y="-740" as="targetPoint" />
          </mxGeometry>
        </mxCell>
        <mxCell id="-D0VRMOkzKC7TL6TW5ba-31" value="Table" style="shape=table;startSize=30;container=1;collapsible=1;childLayout=tableLayout;fixedRows=1;rowLines=0;fontStyle=1;align=center;resizeLast=1;html=1;whiteSpace=wrap;" vertex="1" parent="1">
          <mxGeometry x="-30" y="-450" width="180" height="150" as="geometry" />
        </mxCell>
        <mxCell id="-D0VRMOkzKC7TL6TW5ba-32" value="" style="shape=tableRow;horizontal=0;startSize=0;swimlaneHead=0;swimlaneBody=0;fillColor=none;collapsible=0;dropTarget=0;points=[[0,0.5],[1,0.5]];portConstraint=eastwest;top=0;left=0;right=0;bottom=0;html=1;" vertex="1" parent="-D0VRMOkzKC7TL6TW5ba-31">
          <mxGeometry y="30" width="180" height="30" as="geometry" />
        </mxCell>
        <mxCell id="-D0VRMOkzKC7TL6TW5ba-33" value="PK,FK1" style="shape=partialRectangle;connectable=0;fillColor=none;top=0;left=0;bottom=0;right=0;fontStyle=1;overflow=hidden;html=1;whiteSpace=wrap;" vertex="1" parent="-D0VRMOkzKC7TL6TW5ba-32">
          <mxGeometry width="60" height="30" as="geometry">
            <mxRectangle width="60" height="30" as="alternateBounds" />
          </mxGeometry>
        </mxCell>
        <mxCell id="-D0VRMOkzKC7TL6TW5ba-34" value="Row 1" style="shape=partialRectangle;connectable=0;fillColor=none;top=0;left=0;bottom=0;right=0;align=left;spacingLeft=6;fontStyle=5;overflow=hidden;html=1;whiteSpace=wrap;" vertex="1" parent="-D0VRMOkzKC7TL6TW5ba-32">
          <mxGeometry x="60" width="120" height="30" as="geometry">
            <mxRectangle width="120" height="30" as="alternateBounds" />
          </mxGeometry>
        </mxCell>
        <mxCell id="-D0VRMOkzKC7TL6TW5ba-35" value="" style="shape=tableRow;horizontal=0;startSize=0;swimlaneHead=0;swimlaneBody=0;fillColor=none;collapsible=0;dropTarget=0;points=[[0,0.5],[1,0.5]];portConstraint=eastwest;top=0;left=0;right=0;bottom=1;html=1;" vertex="1" parent="-D0VRMOkzKC7TL6TW5ba-31">
          <mxGeometry y="60" width="180" height="30" as="geometry" />
        </mxCell>
        <mxCell id="-D0VRMOkzKC7TL6TW5ba-36" value="PK,FK2" style="shape=partialRectangle;connectable=0;fillColor=none;top=0;left=0;bottom=0;right=0;fontStyle=1;overflow=hidden;html=1;whiteSpace=wrap;" vertex="1" parent="-D0VRMOkzKC7TL6TW5ba-35">
          <mxGeometry width="60" height="30" as="geometry">
            <mxRectangle width="60" height="30" as="alternateBounds" />
          </mxGeometry>
        </mxCell>
        <mxCell id="-D0VRMOkzKC7TL6TW5ba-37" value="Row 2" style="shape=partialRectangle;connectable=0;fillColor=none;top=0;left=0;bottom=0;right=0;align=left;spacingLeft=6;fontStyle=5;overflow=hidden;html=1;whiteSpace=wrap;" vertex="1" parent="-D0VRMOkzKC7TL6TW5ba-35">
          <mxGeometry x="60" width="120" height="30" as="geometry">
            <mxRectangle width="120" height="30" as="alternateBounds" />
          </mxGeometry>
        </mxCell>
        <mxCell id="-D0VRMOkzKC7TL6TW5ba-38" value="" style="shape=tableRow;horizontal=0;startSize=0;swimlaneHead=0;swimlaneBody=0;fillColor=none;collapsible=0;dropTarget=0;points=[[0,0.5],[1,0.5]];portConstraint=eastwest;top=0;left=0;right=0;bottom=0;html=1;" vertex="1" parent="-D0VRMOkzKC7TL6TW5ba-31">
          <mxGeometry y="90" width="180" height="30" as="geometry" />
        </mxCell>
        <mxCell id="-D0VRMOkzKC7TL6TW5ba-39" value="" style="shape=partialRectangle;connectable=0;fillColor=none;top=0;left=0;bottom=0;right=0;editable=1;overflow=hidden;html=1;whiteSpace=wrap;" vertex="1" parent="-D0VRMOkzKC7TL6TW5ba-38">
          <mxGeometry width="60" height="30" as="geometry">
            <mxRectangle width="60" height="30" as="alternateBounds" />
          </mxGeometry>
        </mxCell>
        <mxCell id="-D0VRMOkzKC7TL6TW5ba-40" value="Row 3" style="shape=partialRectangle;connectable=0;fillColor=none;top=0;left=0;bottom=0;right=0;align=left;spacingLeft=6;overflow=hidden;html=1;whiteSpace=wrap;" vertex="1" parent="-D0VRMOkzKC7TL6TW5ba-38">
          <mxGeometry x="60" width="120" height="30" as="geometry">
            <mxRectangle width="120" height="30" as="alternateBounds" />
          </mxGeometry>
        </mxCell>
        <mxCell id="-D0VRMOkzKC7TL6TW5ba-41" value="" style="shape=tableRow;horizontal=0;startSize=0;swimlaneHead=0;swimlaneBody=0;fillColor=none;collapsible=0;dropTarget=0;points=[[0,0.5],[1,0.5]];portConstraint=eastwest;top=0;left=0;right=0;bottom=0;html=1;" vertex="1" parent="-D0VRMOkzKC7TL6TW5ba-31">
          <mxGeometry y="120" width="180" height="30" as="geometry" />
        </mxCell>
        <mxCell id="-D0VRMOkzKC7TL6TW5ba-42" value="" style="shape=partialRectangle;connectable=0;fillColor=none;top=0;left=0;bottom=0;right=0;editable=1;overflow=hidden;html=1;whiteSpace=wrap;" vertex="1" parent="-D0VRMOkzKC7TL6TW5ba-41">
          <mxGeometry width="60" height="30" as="geometry">
            <mxRectangle width="60" height="30" as="alternateBounds" />
          </mxGeometry>
        </mxCell>
        <mxCell id="-D0VRMOkzKC7TL6TW5ba-43" value="Row 4" style="shape=partialRectangle;connectable=0;fillColor=none;top=0;left=0;bottom=0;right=0;align=left;spacingLeft=6;overflow=hidden;html=1;whiteSpace=wrap;" vertex="1" parent="-D0VRMOkzKC7TL6TW5ba-41">
          <mxGeometry x="60" width="120" height="30" as="geometry">
            <mxRectangle width="120" height="30" as="alternateBounds" />
          </mxGeometry>
        </mxCell>
        <mxCell id="-D0VRMOkzKC7TL6TW5ba-57" value="Kunde" style="shape=table;startSize=30;container=1;collapsible=1;childLayout=tableLayout;fixedRows=1;rowLines=0;fontStyle=1;align=center;resizeLast=1;html=1;fillColor=#FFFFFF;" vertex="1" parent="1">
          <mxGeometry x="560" y="-20" width="180" height="390" as="geometry" />
        </mxCell>
        <mxCell id="-D0VRMOkzKC7TL6TW5ba-58" value="" style="shape=tableRow;horizontal=0;startSize=0;swimlaneHead=0;swimlaneBody=0;fillColor=none;collapsible=0;dropTarget=0;points=[[0,0.5],[1,0.5]];portConstraint=eastwest;top=0;left=0;right=0;bottom=1;" vertex="1" parent="-D0VRMOkzKC7TL6TW5ba-57">
          <mxGeometry y="30" width="180" height="30" as="geometry" />
        </mxCell>
        <mxCell id="-D0VRMOkzKC7TL6TW5ba-59" value="PK" style="shape=partialRectangle;connectable=0;fillColor=none;top=0;left=0;bottom=0;right=0;fontStyle=1;overflow=hidden;whiteSpace=wrap;html=1;" vertex="1" parent="-D0VRMOkzKC7TL6TW5ba-58">
          <mxGeometry width="30" height="30" as="geometry">
            <mxRectangle width="30" height="30" as="alternateBounds" />
          </mxGeometry>
        </mxCell>
        <mxCell id="-D0VRMOkzKC7TL6TW5ba-60" value="Kunden-ID" style="shape=partialRectangle;connectable=0;fillColor=none;top=0;left=0;bottom=0;right=0;align=left;spacingLeft=6;fontStyle=5;overflow=hidden;whiteSpace=wrap;html=1;" vertex="1" parent="-D0VRMOkzKC7TL6TW5ba-58">
          <mxGeometry x="30" width="150" height="30" as="geometry">
            <mxRectangle width="150" height="30" as="alternateBounds" />
          </mxGeometry>
        </mxCell>
        <mxCell id="-D0VRMOkzKC7TL6TW5ba-61" value="" style="shape=tableRow;horizontal=0;startSize=0;swimlaneHead=0;swimlaneBody=0;fillColor=none;collapsible=0;dropTarget=0;points=[[0,0.5],[1,0.5]];portConstraint=eastwest;top=0;left=0;right=0;bottom=0;" vertex="1" parent="-D0VRMOkzKC7TL6TW5ba-57">
          <mxGeometry y="60" width="180" height="30" as="geometry" />
        </mxCell>
        <mxCell id="-D0VRMOkzKC7TL6TW5ba-62" value="FK" style="shape=partialRectangle;connectable=0;fillColor=none;top=0;left=0;bottom=0;right=0;editable=1;overflow=hidden;whiteSpace=wrap;html=1;" vertex="1" parent="-D0VRMOkzKC7TL6TW5ba-61">
          <mxGeometry width="30" height="30" as="geometry">
            <mxRectangle width="30" height="30" as="alternateBounds" />
          </mxGeometry>
        </mxCell>
        <mxCell id="-D0VRMOkzKC7TL6TW5ba-63" value="+ Mitgliedsstatus: Int" style="shape=partialRectangle;connectable=0;fillColor=none;top=0;left=0;bottom=0;right=0;align=left;spacingLeft=6;overflow=hidden;whiteSpace=wrap;html=1;" vertex="1" parent="-D0VRMOkzKC7TL6TW5ba-61">
          <mxGeometry x="30" width="150" height="30" as="geometry">
            <mxRectangle width="150" height="30" as="alternateBounds" />
          </mxGeometry>
        </mxCell>
        <mxCell id="-D0VRMOkzKC7TL6TW5ba-64" value="" style="shape=tableRow;horizontal=0;startSize=0;swimlaneHead=0;swimlaneBody=0;fillColor=none;collapsible=0;dropTarget=0;points=[[0,0.5],[1,0.5]];portConstraint=eastwest;top=0;left=0;right=0;bottom=0;" vertex="1" parent="-D0VRMOkzKC7TL6TW5ba-57">
          <mxGeometry y="90" width="180" height="280" as="geometry" />
        </mxCell>
        <mxCell id="-D0VRMOkzKC7TL6TW5ba-65" value="" style="shape=partialRectangle;connectable=0;fillColor=none;top=0;left=0;bottom=0;right=0;editable=1;overflow=hidden;whiteSpace=wrap;html=1;" vertex="1" parent="-D0VRMOkzKC7TL6TW5ba-64">
          <mxGeometry width="30" height="280" as="geometry">
            <mxRectangle width="30" height="280" as="alternateBounds" />
          </mxGeometry>
        </mxCell>
        <mxCell id="-D0VRMOkzKC7TL6TW5ba-66" value="&lt;span style=&quot;text-wrap: nowrap;&quot;&gt;+ Kunden-Id&lt;/span&gt;&lt;div style=&quot;text-wrap: nowrap;&quot;&gt;+ Kunden-Nr&lt;/div&gt;&lt;div style=&quot;text-wrap: nowrap;&quot;&gt;+ Vorname&lt;/div&gt;&lt;div style=&quot;text-wrap: nowrap;&quot;&gt;+ Vorname2&lt;/div&gt;&lt;div style=&quot;text-wrap: nowrap;&quot;&gt;+ Name&lt;/div&gt;&lt;div style=&quot;text-wrap: nowrap;&quot;&gt;+ Anrede&lt;/div&gt;&lt;div style=&quot;text-wrap: nowrap;&quot;&gt;+ Titel&lt;/div&gt;&lt;div style=&quot;text-wrap: nowrap;&quot;&gt;+ PLZ&lt;/div&gt;&lt;div style=&quot;text-wrap: nowrap;&quot;&gt;+ StraÃŸe&lt;/div&gt;&lt;div style=&quot;text-wrap: nowrap;&quot;&gt;+ Hausnr&lt;/div&gt;&lt;div style=&quot;text-wrap: nowrap;&quot;&gt;+ eMail&lt;/div&gt;&lt;div style=&quot;text-wrap: nowrap;&quot;&gt;+ Telefonnummer&lt;/div&gt;&lt;div style=&quot;text-wrap: nowrap;&quot;&gt;+ Geschlecht&lt;/div&gt;&lt;div style=&quot;text-wrap: nowrap;&quot;&gt;+ Geb-Datum&lt;/div&gt;&lt;div style=&quot;text-wrap: nowrap;&quot;&gt;+ Beruf&lt;/div&gt;&lt;div style=&quot;text-wrap: nowrap;&quot;&gt;+ Perso-Nr.&lt;/div&gt;&lt;div style=&quot;text-wrap: nowrap;&quot;&gt;+ Ablaufdatum Perso&lt;/div&gt;&lt;div style=&quot;text-wrap: nowrap;&quot;&gt;+ Mitglied seit&lt;/div&gt;&lt;div style=&quot;text-wrap: nowrap;&quot;&gt;+ Mitglied bis&lt;/div&gt;" style="shape=partialRectangle;connectable=0;fillColor=none;top=0;left=0;bottom=0;right=0;align=left;spacingLeft=6;overflow=hidden;whiteSpace=wrap;html=1;" vertex="1" parent="-D0VRMOkzKC7TL6TW5ba-64">
          <mxGeometry x="30" width="150" height="280" as="geometry">
            <mxRectangle width="150" height="280" as="alternateBounds" />
          </mxGeometry>
        </mxCell>
        <mxCell id="-D0VRMOkzKC7TL6TW5ba-67" value="" style="shape=tableRow;horizontal=0;startSize=0;swimlaneHead=0;swimlaneBody=0;fillColor=none;collapsible=0;dropTarget=0;points=[[0,0.5],[1,0.5]];portConstraint=eastwest;top=0;left=0;right=0;bottom=0;" vertex="1" parent="-D0VRMOkzKC7TL6TW5ba-57">
          <mxGeometry y="370" width="180" height="20" as="geometry" />
        </mxCell>
        <mxCell id="-D0VRMOkzKC7TL6TW5ba-68" value="" style="shape=partialRectangle;connectable=0;fillColor=none;top=0;left=0;bottom=0;right=0;editable=1;overflow=hidden;whiteSpace=wrap;html=1;" vertex="1" parent="-D0VRMOkzKC7TL6TW5ba-67">
          <mxGeometry width="30" height="20" as="geometry">
            <mxRectangle width="30" height="20" as="alternateBounds" />
          </mxGeometry>
        </mxCell>
        <mxCell id="-D0VRMOkzKC7TL6TW5ba-69" value="" style="shape=partialRectangle;connectable=0;fillColor=none;top=0;left=0;bottom=0;right=0;align=left;spacingLeft=6;overflow=hidden;whiteSpace=wrap;html=1;" vertex="1" parent="-D0VRMOkzKC7TL6TW5ba-67">
          <mxGeometry x="30" width="150" height="20" as="geometry">
            <mxRectangle width="150" height="20" as="alternateBounds" />
          </mxGeometry>
        </mxCell>
        <mxCell id="-D0VRMOkzKC7TL6TW5ba-77" value="Beitragszahlung" style="shape=table;startSize=30;container=1;collapsible=1;childLayout=tableLayout;fixedRows=1;rowLines=0;fontStyle=1;align=center;resizeLast=1;html=1;" vertex="1" parent="1">
          <mxGeometry x="235" y="-50" width="200" height="140.00000000000227" as="geometry" />
        </mxCell>
        <mxCell id="-D0VRMOkzKC7TL6TW5ba-78" value="" style="shape=tableRow;horizontal=0;startSize=0;swimlaneHead=0;swimlaneBody=0;fillColor=none;collapsible=0;dropTarget=0;points=[[0,0.5],[1,0.5]];portConstraint=eastwest;top=0;left=0;right=0;bottom=1;" vertex="1" parent="-D0VRMOkzKC7TL6TW5ba-77">
          <mxGeometry y="30" width="200" height="30" as="geometry" />
        </mxCell>
        <mxCell id="-D0VRMOkzKC7TL6TW5ba-79" value="PK" style="shape=partialRectangle;connectable=0;fillColor=none;top=0;left=0;bottom=0;right=0;fontStyle=1;overflow=hidden;whiteSpace=wrap;html=1;" vertex="1" parent="-D0VRMOkzKC7TL6TW5ba-78">
          <mxGeometry width="30" height="30" as="geometry">
            <mxRectangle width="30" height="30" as="alternateBounds" />
          </mxGeometry>
        </mxCell>
        <mxCell id="-D0VRMOkzKC7TL6TW5ba-80" value="Zahlungs-ID" style="shape=partialRectangle;connectable=0;fillColor=none;top=0;left=0;bottom=0;right=0;align=left;spacingLeft=6;fontStyle=5;overflow=hidden;whiteSpace=wrap;html=1;" vertex="1" parent="-D0VRMOkzKC7TL6TW5ba-78">
          <mxGeometry x="30" width="170" height="30" as="geometry">
            <mxRectangle width="170" height="30" as="alternateBounds" />
          </mxGeometry>
        </mxCell>
        <mxCell id="-D0VRMOkzKC7TL6TW5ba-81" value="" style="shape=tableRow;horizontal=0;startSize=0;swimlaneHead=0;swimlaneBody=0;fillColor=none;collapsible=0;dropTarget=0;points=[[0,0.5],[1,0.5]];portConstraint=eastwest;top=0;left=0;right=0;bottom=0;" vertex="1" parent="-D0VRMOkzKC7TL6TW5ba-77">
          <mxGeometry y="60" width="200" height="30" as="geometry" />
        </mxCell>
        <mxCell id="-D0VRMOkzKC7TL6TW5ba-82" value="FK" style="shape=partialRectangle;connectable=0;fillColor=none;top=0;left=0;bottom=0;right=0;editable=1;overflow=hidden;whiteSpace=wrap;html=1;" vertex="1" parent="-D0VRMOkzKC7TL6TW5ba-81">
          <mxGeometry width="30" height="30" as="geometry">
            <mxRectangle width="30" height="30" as="alternateBounds" />
          </mxGeometry>
        </mxCell>
        <mxCell id="-D0VRMOkzKC7TL6TW5ba-83" value="+ Kunden-ID" style="shape=partialRectangle;connectable=0;fillColor=none;top=0;left=0;bottom=0;right=0;align=left;spacingLeft=6;overflow=hidden;whiteSpace=wrap;html=1;" vertex="1" parent="-D0VRMOkzKC7TL6TW5ba-81">
          <mxGeometry x="30" width="170" height="30" as="geometry">
            <mxRectangle width="170" height="30" as="alternateBounds" />
          </mxGeometry>
        </mxCell>
        <mxCell id="-D0VRMOkzKC7TL6TW5ba-84" value="" style="shape=tableRow;horizontal=0;startSize=0;swimlaneHead=0;swimlaneBody=0;fillColor=none;collapsible=0;dropTarget=0;points=[[0,0.5],[1,0.5]];portConstraint=eastwest;top=0;left=0;right=0;bottom=0;" vertex="1" parent="-D0VRMOkzKC7TL6TW5ba-77">
          <mxGeometry y="90" width="200" height="50" as="geometry" />
        </mxCell>
        <mxCell id="-D0VRMOkzKC7TL6TW5ba-85" value="" style="shape=partialRectangle;connectable=0;fillColor=none;top=0;left=0;bottom=0;right=0;editable=1;overflow=hidden;whiteSpace=wrap;html=1;" vertex="1" parent="-D0VRMOkzKC7TL6TW5ba-84">
          <mxGeometry width="30" height="50" as="geometry">
            <mxRectangle width="30" height="50" as="alternateBounds" />
          </mxGeometry>
        </mxCell>
        <mxCell id="-D0VRMOkzKC7TL6TW5ba-86" value="+ Datum: Date&lt;div&gt;+ Betrag: Decimal&lt;/div&gt;" style="shape=partialRectangle;connectable=0;fillColor=none;top=0;left=0;bottom=0;right=0;align=left;spacingLeft=6;overflow=hidden;whiteSpace=wrap;html=1;" vertex="1" parent="-D0VRMOkzKC7TL6TW5ba-84">
          <mxGeometry x="30" width="170" height="50" as="geometry">
            <mxRectangle width="170" height="50" as="alternateBounds" />
          </mxGeometry>
        </mxCell>
        <mxCell id="-D0VRMOkzKC7TL6TW5ba-91" value="" style="edgeStyle=entityRelationEdgeStyle;fontSize=12;html=1;endArrow=ERmany;rounded=0;entryX=1;entryY=0.794;entryDx=0;entryDy=0;exitX=-0.007;exitY=0.142;exitDx=0;exitDy=0;exitPerimeter=0;entryPerimeter=0;" edge="1" parent="1" source="-D0VRMOkzKC7TL6TW5ba-64" target="-D0VRMOkzKC7TL6TW5ba-81">
          <mxGeometry width="100" height="100" relative="1" as="geometry">
            <mxPoint x="751" y="253" as="sourcePoint" />
            <mxPoint x="890" y="407" as="targetPoint" />
          </mxGeometry>
        </mxCell>
        <mxCell id="-D0VRMOkzKC7TL6TW5ba-92" value="Mitgliedstatus" style="shape=table;startSize=30;container=1;collapsible=1;childLayout=tableLayout;fixedRows=1;rowLines=0;fontStyle=1;align=center;resizeLast=1;html=1;" vertex="1" parent="1">
          <mxGeometry x="240" y="170" width="200" height="140.00000000000227" as="geometry" />
        </mxCell>
        <mxCell id="-D0VRMOkzKC7TL6TW5ba-93" value="" style="shape=tableRow;horizontal=0;startSize=0;swimlaneHead=0;swimlaneBody=0;fillColor=none;collapsible=0;dropTarget=0;points=[[0,0.5],[1,0.5]];portConstraint=eastwest;top=0;left=0;right=0;bottom=1;" vertex="1" parent="-D0VRMOkzKC7TL6TW5ba-92">
          <mxGeometry y="30" width="200" height="30" as="geometry" />
        </mxCell>
        <mxCell id="-D0VRMOkzKC7TL6TW5ba-94" value="PK" style="shape=partialRectangle;connectable=0;fillColor=none;top=0;left=0;bottom=0;right=0;fontStyle=1;overflow=hidden;whiteSpace=wrap;html=1;" vertex="1" parent="-D0VRMOkzKC7TL6TW5ba-93">
          <mxGeometry width="30" height="30" as="geometry">
            <mxRectangle width="30" height="30" as="alternateBounds" />
          </mxGeometry>
        </mxCell>
        <mxCell id="-D0VRMOkzKC7TL6TW5ba-95" value="Status-ID" style="shape=partialRectangle;connectable=0;fillColor=none;top=0;left=0;bottom=0;right=0;align=left;spacingLeft=6;fontStyle=5;overflow=hidden;whiteSpace=wrap;html=1;" vertex="1" parent="-D0VRMOkzKC7TL6TW5ba-93">
          <mxGeometry x="30" width="170" height="30" as="geometry">
            <mxRectangle width="170" height="30" as="alternateBounds" />
          </mxGeometry>
        </mxCell>
        <mxCell id="-D0VRMOkzKC7TL6TW5ba-96" value="" style="shape=tableRow;horizontal=0;startSize=0;swimlaneHead=0;swimlaneBody=0;fillColor=none;collapsible=0;dropTarget=0;points=[[0,0.5],[1,0.5]];portConstraint=eastwest;top=0;left=0;right=0;bottom=0;" vertex="1" parent="-D0VRMOkzKC7TL6TW5ba-92">
          <mxGeometry y="60" width="200" height="60" as="geometry" />
        </mxCell>
        <mxCell id="-D0VRMOkzKC7TL6TW5ba-97" value="" style="shape=partialRectangle;connectable=0;fillColor=none;top=0;left=0;bottom=0;right=0;editable=1;overflow=hidden;whiteSpace=wrap;html=1;" vertex="1" parent="-D0VRMOkzKC7TL6TW5ba-96">
          <mxGeometry width="30" height="60" as="geometry">
            <mxRectangle width="30" height="60" as="alternateBounds" />
          </mxGeometry>
        </mxCell>
        <mxCell id="-D0VRMOkzKC7TL6TW5ba-98" value="+ Bezeichnung: String&lt;div&gt;+ Jahresbeitrag: Decimal&lt;/div&gt;&lt;div&gt;+ Mahnbetrag: Decimal&lt;/div&gt;" style="shape=partialRectangle;connectable=0;fillColor=none;top=0;left=0;bottom=0;right=0;align=left;spacingLeft=6;overflow=hidden;whiteSpace=wrap;html=1;" vertex="1" parent="-D0VRMOkzKC7TL6TW5ba-96">
          <mxGeometry x="30" width="170" height="60" as="geometry">
            <mxRectangle width="170" height="60" as="alternateBounds" />
          </mxGeometry>
        </mxCell>
        <mxCell id="-D0VRMOkzKC7TL6TW5ba-99" value="" style="shape=tableRow;horizontal=0;startSize=0;swimlaneHead=0;swimlaneBody=0;fillColor=none;collapsible=0;dropTarget=0;points=[[0,0.5],[1,0.5]];portConstraint=eastwest;top=0;left=0;right=0;bottom=0;" vertex="1" parent="-D0VRMOkzKC7TL6TW5ba-92">
          <mxGeometry y="120" width="200" height="20" as="geometry" />
        </mxCell>
        <mxCell id="-D0VRMOkzKC7TL6TW5ba-100" value="" style="shape=partialRectangle;connectable=0;fillColor=none;top=0;left=0;bottom=0;right=0;editable=1;overflow=hidden;whiteSpace=wrap;html=1;" vertex="1" parent="-D0VRMOkzKC7TL6TW5ba-99">
          <mxGeometry width="30" height="20" as="geometry">
            <mxRectangle width="30" height="20" as="alternateBounds" />
          </mxGeometry>
        </mxCell>
        <mxCell id="-D0VRMOkzKC7TL6TW5ba-101" value="" style="shape=partialRectangle;connectable=0;fillColor=none;top=0;left=0;bottom=0;right=0;align=left;spacingLeft=6;overflow=hidden;whiteSpace=wrap;html=1;" vertex="1" parent="-D0VRMOkzKC7TL6TW5ba-99">
          <mxGeometry x="30" width="170" height="20" as="geometry">
            <mxRectangle width="170" height="20" as="alternateBounds" />
          </mxGeometry>
        </mxCell>
        <mxCell id="-D0VRMOkzKC7TL6TW5ba-105" value="" style="fontSize=12;html=1;endArrow=ERmany;rounded=0;entryX=0.491;entryY=1.02;entryDx=0;entryDy=0;exitX=0.327;exitY=-0.013;exitDx=0;exitDy=0;entryPerimeter=0;exitPerimeter=0;" edge="1" parent="1" source="lfR97x9AHYAny6RsblMl-14" target="-D0VRMOkzKC7TL6TW5ba-113">
          <mxGeometry width="100" height="100" relative="1" as="geometry">
            <mxPoint x="959" y="-90" as="sourcePoint" />
            <mxPoint x="748.0999999999999" y="-109.63999999999999" as="targetPoint" />
            <Array as="points">
              <mxPoint x="920" y="-50" />
              <mxPoint x="773" y="-110" />
            </Array>
          </mxGeometry>
        </mxCell>
        <mxCell id="-D0VRMOkzKC7TL6TW5ba-106" value="Leihzahlung" style="shape=table;startSize=30;container=1;collapsible=1;childLayout=tableLayout;fixedRows=1;rowLines=0;fontStyle=1;align=center;resizeLast=1;html=1;" vertex="1" parent="1">
          <mxGeometry x="675" y="-300" width="200" height="140.00000000000227" as="geometry" />
        </mxCell>
        <mxCell id="-D0VRMOkzKC7TL6TW5ba-107" value="" style="shape=tableRow;horizontal=0;startSize=0;swimlaneHead=0;swimlaneBody=0;fillColor=none;collapsible=0;dropTarget=0;points=[[0,0.5],[1,0.5]];portConstraint=eastwest;top=0;left=0;right=0;bottom=1;" vertex="1" parent="-D0VRMOkzKC7TL6TW5ba-106">
          <mxGeometry y="30" width="200" height="30" as="geometry" />
        </mxCell>
        <mxCell id="-D0VRMOkzKC7TL6TW5ba-108" value="PK" style="shape=partialRectangle;connectable=0;fillColor=none;top=0;left=0;bottom=0;right=0;fontStyle=1;overflow=hidden;whiteSpace=wrap;html=1;" vertex="1" parent="-D0VRMOkzKC7TL6TW5ba-107">
          <mxGeometry width="30" height="30" as="geometry">
            <mxRectangle width="30" height="30" as="alternateBounds" />
          </mxGeometry>
        </mxCell>
        <mxCell id="-D0VRMOkzKC7TL6TW5ba-109" value="Zahlungs-ID" style="shape=partialRectangle;connectable=0;fillColor=none;top=0;left=0;bottom=0;right=0;align=left;spacingLeft=6;fontStyle=5;overflow=hidden;whiteSpace=wrap;html=1;" vertex="1" parent="-D0VRMOkzKC7TL6TW5ba-107">
          <mxGeometry x="30" width="170" height="30" as="geometry">
            <mxRectangle width="170" height="30" as="alternateBounds" />
          </mxGeometry>
        </mxCell>
        <mxCell id="-D0VRMOkzKC7TL6TW5ba-110" value="" style="shape=tableRow;horizontal=0;startSize=0;swimlaneHead=0;swimlaneBody=0;fillColor=none;collapsible=0;dropTarget=0;points=[[0,0.5],[1,0.5]];portConstraint=eastwest;top=0;left=0;right=0;bottom=0;" vertex="1" parent="-D0VRMOkzKC7TL6TW5ba-106">
          <mxGeometry y="60" width="200" height="30" as="geometry" />
        </mxCell>
        <mxCell id="-D0VRMOkzKC7TL6TW5ba-111" value="FK" style="shape=partialRectangle;connectable=0;fillColor=none;top=0;left=0;bottom=0;right=0;editable=1;overflow=hidden;whiteSpace=wrap;html=1;" vertex="1" parent="-D0VRMOkzKC7TL6TW5ba-110">
          <mxGeometry width="30" height="30" as="geometry">
            <mxRectangle width="30" height="30" as="alternateBounds" />
          </mxGeometry>
        </mxCell>
        <mxCell id="-D0VRMOkzKC7TL6TW5ba-112" value="+ Leih-ID" style="shape=partialRectangle;connectable=0;fillColor=none;top=0;left=0;bottom=0;right=0;align=left;spacingLeft=6;overflow=hidden;whiteSpace=wrap;html=1;" vertex="1" parent="-D0VRMOkzKC7TL6TW5ba-110">
          <mxGeometry x="30" width="170" height="30" as="geometry">
            <mxRectangle width="170" height="30" as="alternateBounds" />
          </mxGeometry>
        </mxCell>
        <mxCell id="-D0VRMOkzKC7TL6TW5ba-113" value="" style="shape=tableRow;horizontal=0;startSize=0;swimlaneHead=0;swimlaneBody=0;fillColor=none;collapsible=0;dropTarget=0;points=[[0,0.5],[1,0.5]];portConstraint=eastwest;top=0;left=0;right=0;bottom=0;" vertex="1" parent="-D0VRMOkzKC7TL6TW5ba-106">
          <mxGeometry y="90" width="200" height="50" as="geometry" />
        </mxCell>
        <mxCell id="-D0VRMOkzKC7TL6TW5ba-114" value="" style="shape=partialRectangle;connectable=0;fillColor=none;top=0;left=0;bottom=0;right=0;editable=1;overflow=hidden;whiteSpace=wrap;html=1;" vertex="1" parent="-D0VRMOkzKC7TL6TW5ba-113">
          <mxGeometry width="30" height="50" as="geometry">
            <mxRectangle width="30" height="50" as="alternateBounds" />
          </mxGeometry>
        </mxCell>
        <mxCell id="-D0VRMOkzKC7TL6TW5ba-115" value="+ Datum: Date&lt;div&gt;+ Betrag: Decimal&lt;/div&gt;&lt;div&gt;+ Art: String&lt;/div&gt;" style="shape=partialRectangle;connectable=0;fillColor=none;top=0;left=0;bottom=0;right=0;align=left;spacingLeft=6;overflow=hidden;whiteSpace=wrap;html=1;" vertex="1" parent="-D0VRMOkzKC7TL6TW5ba-113">
          <mxGeometry x="30" width="170" height="50" as="geometry">
            <mxRectangle width="170" height="50" as="alternateBounds" />
          </mxGeometry>
        </mxCell>
        <mxCell id="-D0VRMOkzKC7TL6TW5ba-117" value="" style="edgeStyle=entityRelationEdgeStyle;fontSize=12;html=1;endArrow=ERmany;rounded=0;exitX=1;exitY=0.5;exitDx=0;exitDy=0;entryX=0;entryY=0.5;entryDx=0;entryDy=0;" edge="1" parent="1" source="-D0VRMOkzKC7TL6TW5ba-96" target="-D0VRMOkzKC7TL6TW5ba-64">
          <mxGeometry width="100" height="100" relative="1" as="geometry">
            <mxPoint x="431" y="111" as="sourcePoint" />
            <mxPoint x="560" y="171" as="targetPoint" />
          </mxGeometry>
        </mxCell>
        <mxCell id="-D0VRMOkzKC7TL6TW5ba-118" value="Sendung" style="shape=table;startSize=30;container=1;collapsible=1;childLayout=tableLayout;fixedRows=1;rowLines=0;fontStyle=1;align=center;resizeLast=1;html=1;" vertex="1" parent="1">
          <mxGeometry x="1070" y="-300" width="200" height="170.00000000000227" as="geometry" />
        </mxCell>
        <mxCell id="-D0VRMOkzKC7TL6TW5ba-119" value="" style="shape=tableRow;horizontal=0;startSize=0;swimlaneHead=0;swimlaneBody=0;fillColor=none;collapsible=0;dropTarget=0;points=[[0,0.5],[1,0.5]];portConstraint=eastwest;top=0;left=0;right=0;bottom=1;" vertex="1" parent="-D0VRMOkzKC7TL6TW5ba-118">
          <mxGeometry y="30" width="200" height="30" as="geometry" />
        </mxCell>
        <mxCell id="-D0VRMOkzKC7TL6TW5ba-120" value="PK" style="shape=partialRectangle;connectable=0;fillColor=none;top=0;left=0;bottom=0;right=0;fontStyle=1;overflow=hidden;whiteSpace=wrap;html=1;" vertex="1" parent="-D0VRMOkzKC7TL6TW5ba-119">
          <mxGeometry width="30" height="30" as="geometry">
            <mxRectangle width="30" height="30" as="alternateBounds" />
          </mxGeometry>
        </mxCell>
        <mxCell id="-D0VRMOkzKC7TL6TW5ba-121" value="Versand-ID" style="shape=partialRectangle;connectable=0;fillColor=none;top=0;left=0;bottom=0;right=0;align=left;spacingLeft=6;fontStyle=5;overflow=hidden;whiteSpace=wrap;html=1;" vertex="1" parent="-D0VRMOkzKC7TL6TW5ba-119">
          <mxGeometry x="30" width="170" height="30" as="geometry">
            <mxRectangle width="170" height="30" as="alternateBounds" />
          </mxGeometry>
        </mxCell>
        <mxCell id="-D0VRMOkzKC7TL6TW5ba-122" value="" style="shape=tableRow;horizontal=0;startSize=0;swimlaneHead=0;swimlaneBody=0;fillColor=none;collapsible=0;dropTarget=0;points=[[0,0.5],[1,0.5]];portConstraint=eastwest;top=0;left=0;right=0;bottom=0;" vertex="1" parent="-D0VRMOkzKC7TL6TW5ba-118">
          <mxGeometry y="60" width="200" height="30" as="geometry" />
        </mxCell>
        <mxCell id="-D0VRMOkzKC7TL6TW5ba-123" value="FK" style="shape=partialRectangle;connectable=0;fillColor=none;top=0;left=0;bottom=0;right=0;editable=1;overflow=hidden;whiteSpace=wrap;html=1;" vertex="1" parent="-D0VRMOkzKC7TL6TW5ba-122">
          <mxGeometry width="30" height="30" as="geometry">
            <mxRectangle width="30" height="30" as="alternateBounds" />
          </mxGeometry>
        </mxCell>
        <mxCell id="-D0VRMOkzKC7TL6TW5ba-124" value="+ Leih-ID" style="shape=partialRectangle;connectable=0;fillColor=none;top=0;left=0;bottom=0;right=0;align=left;spacingLeft=6;overflow=hidden;whiteSpace=wrap;html=1;" vertex="1" parent="-D0VRMOkzKC7TL6TW5ba-122">
          <mxGeometry x="30" width="170" height="30" as="geometry">
            <mxRectangle width="170" height="30" as="alternateBounds" />
          </mxGeometry>
        </mxCell>
        <mxCell id="-D0VRMOkzKC7TL6TW5ba-125" value="" style="shape=tableRow;horizontal=0;startSize=0;swimlaneHead=0;swimlaneBody=0;fillColor=none;collapsible=0;dropTarget=0;points=[[0,0.5],[1,0.5]];portConstraint=eastwest;top=0;left=0;right=0;bottom=0;" vertex="1" parent="-D0VRMOkzKC7TL6TW5ba-118">
          <mxGeometry y="90" width="200" height="80" as="geometry" />
        </mxCell>
        <mxCell id="-D0VRMOkzKC7TL6TW5ba-126" value="" style="shape=partialRectangle;connectable=0;fillColor=none;top=0;left=0;bottom=0;right=0;editable=1;overflow=hidden;whiteSpace=wrap;html=1;" vertex="1" parent="-D0VRMOkzKC7TL6TW5ba-125">
          <mxGeometry width="30" height="80" as="geometry">
            <mxRectangle width="30" height="80" as="alternateBounds" />
          </mxGeometry>
        </mxCell>
        <mxCell id="-D0VRMOkzKC7TL6TW5ba-127" value="+ Sendungs-Nr: String&lt;div&gt;+ Versanddatum: Date&lt;/div&gt;&lt;div&gt;+ Zugestellt: Date&lt;br&gt;&lt;div&gt;+ Kosten: Decimal&lt;/div&gt;&lt;/div&gt;" style="shape=partialRectangle;connectable=0;fillColor=none;top=0;left=0;bottom=0;right=0;align=left;spacingLeft=6;overflow=hidden;whiteSpace=wrap;html=1;" vertex="1" parent="-D0VRMOkzKC7TL6TW5ba-125">
          <mxGeometry x="30" width="170" height="80" as="geometry">
            <mxRectangle width="170" height="80" as="alternateBounds" />
          </mxGeometry>
        </mxCell>
        <mxCell id="-D0VRMOkzKC7TL6TW5ba-128" value="" style="fontSize=12;html=1;endArrow=ERmany;rounded=0;exitX=0.513;exitY=1.015;exitDx=0;exitDy=0;exitPerimeter=0;entryX=0.657;entryY=0.002;entryDx=0;entryDy=0;entryPerimeter=0;" edge="1" parent="1" source="-D0VRMOkzKC7TL6TW5ba-125" target="lfR97x9AHYAny6RsblMl-14">
          <mxGeometry width="100" height="100" relative="1" as="geometry">
            <mxPoint x="430" y="120" as="sourcePoint" />
            <mxPoint x="1040.1200000000003" y="-14.199999999999818" as="targetPoint" />
            <Array as="points">
              <mxPoint x="1173" y="-100" />
              <mxPoint x="980" y="-40" />
            </Array>
          </mxGeometry>
        </mxCell>
        <mxCell id="-D0VRMOkzKC7TL6TW5ba-129" value="Buch" style="shape=table;startSize=30;container=1;collapsible=1;childLayout=tableLayout;fixedRows=1;rowLines=0;fontStyle=1;align=center;resizeLast=1;html=1;" vertex="1" parent="1">
          <mxGeometry x="1180" y="240" width="180" height="170" as="geometry" />
        </mxCell>
        <mxCell id="-D0VRMOkzKC7TL6TW5ba-130" value="" style="shape=tableRow;horizontal=0;startSize=0;swimlaneHead=0;swimlaneBody=0;fillColor=none;collapsible=0;dropTarget=0;points=[[0,0.5],[1,0.5]];portConstraint=eastwest;top=0;left=0;right=0;bottom=1;" vertex="1" parent="-D0VRMOkzKC7TL6TW5ba-129">
          <mxGeometry y="30" width="180" height="30" as="geometry" />
        </mxCell>
        <mxCell id="-D0VRMOkzKC7TL6TW5ba-131" value="PK" style="shape=partialRectangle;connectable=0;fillColor=none;top=0;left=0;bottom=0;right=0;fontStyle=1;overflow=hidden;whiteSpace=wrap;html=1;" vertex="1" parent="-D0VRMOkzKC7TL6TW5ba-130">
          <mxGeometry width="30" height="30" as="geometry">
            <mxRectangle width="30" height="30" as="alternateBounds" />
          </mxGeometry>
        </mxCell>
        <mxCell id="-D0VRMOkzKC7TL6TW5ba-132" value="Buch-ID" style="shape=partialRectangle;connectable=0;fillColor=none;top=0;left=0;bottom=0;right=0;align=left;spacingLeft=6;fontStyle=5;overflow=hidden;whiteSpace=wrap;html=1;" vertex="1" parent="-D0VRMOkzKC7TL6TW5ba-130">
          <mxGeometry x="30" width="150" height="30" as="geometry">
            <mxRectangle width="150" height="30" as="alternateBounds" />
          </mxGeometry>
        </mxCell>
        <mxCell id="-D0VRMOkzKC7TL6TW5ba-133" value="" style="shape=tableRow;horizontal=0;startSize=0;swimlaneHead=0;swimlaneBody=0;fillColor=none;collapsible=0;dropTarget=0;points=[[0,0.5],[1,0.5]];portConstraint=eastwest;top=0;left=0;right=0;bottom=0;" vertex="1" parent="-D0VRMOkzKC7TL6TW5ba-129">
          <mxGeometry y="60" width="180" height="30" as="geometry" />
        </mxCell>
        <mxCell id="-D0VRMOkzKC7TL6TW5ba-134" value="FK" style="shape=partialRectangle;connectable=0;fillColor=none;top=0;left=0;bottom=0;right=0;editable=1;overflow=hidden;whiteSpace=wrap;html=1;" vertex="1" parent="-D0VRMOkzKC7TL6TW5ba-133">
          <mxGeometry width="30" height="30" as="geometry">
            <mxRectangle width="30" height="30" as="alternateBounds" />
          </mxGeometry>
        </mxCell>
        <mxCell id="-D0VRMOkzKC7TL6TW5ba-135" value="+Autor-ID" style="shape=partialRectangle;connectable=0;fillColor=none;top=0;left=0;bottom=0;right=0;align=left;spacingLeft=6;overflow=hidden;whiteSpace=wrap;html=1;" vertex="1" parent="-D0VRMOkzKC7TL6TW5ba-133">
          <mxGeometry x="30" width="150" height="30" as="geometry">
            <mxRectangle width="150" height="30" as="alternateBounds" />
          </mxGeometry>
        </mxCell>
        <mxCell id="-D0VRMOkzKC7TL6TW5ba-136" value="" style="shape=tableRow;horizontal=0;startSize=0;swimlaneHead=0;swimlaneBody=0;fillColor=none;collapsible=0;dropTarget=0;points=[[0,0.5],[1,0.5]];portConstraint=eastwest;top=0;left=0;right=0;bottom=0;" vertex="1" parent="-D0VRMOkzKC7TL6TW5ba-129">
          <mxGeometry y="90" width="180" height="50" as="geometry" />
        </mxCell>
        <mxCell id="-D0VRMOkzKC7TL6TW5ba-137" value="" style="shape=partialRectangle;connectable=0;fillColor=none;top=0;left=0;bottom=0;right=0;editable=1;overflow=hidden;whiteSpace=wrap;html=1;" vertex="1" parent="-D0VRMOkzKC7TL6TW5ba-136">
          <mxGeometry width="30" height="50" as="geometry">
            <mxRectangle width="30" height="50" as="alternateBounds" />
          </mxGeometry>
        </mxCell>
        <mxCell id="-D0VRMOkzKC7TL6TW5ba-138" value="+Titel&lt;div&gt;+Jahr&lt;/div&gt;&lt;div&gt;+ Art&lt;/div&gt;" style="shape=partialRectangle;connectable=0;fillColor=none;top=0;left=0;bottom=0;right=0;align=left;spacingLeft=6;overflow=hidden;whiteSpace=wrap;html=1;" vertex="1" parent="-D0VRMOkzKC7TL6TW5ba-136">
          <mxGeometry x="30" width="150" height="50" as="geometry">
            <mxRectangle width="150" height="50" as="alternateBounds" />
          </mxGeometry>
        </mxCell>
        <mxCell id="-D0VRMOkzKC7TL6TW5ba-139" value="" style="shape=tableRow;horizontal=0;startSize=0;swimlaneHead=0;swimlaneBody=0;fillColor=none;collapsible=0;dropTarget=0;points=[[0,0.5],[1,0.5]];portConstraint=eastwest;top=0;left=0;right=0;bottom=0;" vertex="1" parent="-D0VRMOkzKC7TL6TW5ba-129">
          <mxGeometry y="140" width="180" height="30" as="geometry" />
        </mxCell>
        <mxCell id="-D0VRMOkzKC7TL6TW5ba-140" value="" style="shape=partialRectangle;connectable=0;fillColor=none;top=0;left=0;bottom=0;right=0;editable=1;overflow=hidden;whiteSpace=wrap;html=1;" vertex="1" parent="-D0VRMOkzKC7TL6TW5ba-139">
          <mxGeometry width="30" height="30" as="geometry">
            <mxRectangle width="30" height="30" as="alternateBounds" />
          </mxGeometry>
        </mxCell>
        <mxCell id="-D0VRMOkzKC7TL6TW5ba-141" value="" style="shape=partialRectangle;connectable=0;fillColor=none;top=0;left=0;bottom=0;right=0;align=left;spacingLeft=6;overflow=hidden;whiteSpace=wrap;html=1;" vertex="1" parent="-D0VRMOkzKC7TL6TW5ba-139">
          <mxGeometry x="30" width="150" height="30" as="geometry">
            <mxRectangle width="150" height="30" as="alternateBounds" />
          </mxGeometry>
        </mxCell>
        <mxCell id="-D0VRMOkzKC7TL6TW5ba-142" value="Autor" style="shape=table;startSize=30;container=1;collapsible=1;childLayout=tableLayout;fixedRows=1;rowLines=0;fontStyle=1;align=center;resizeLast=1;html=1;" vertex="1" parent="1">
          <mxGeometry x="1510" y="240" width="180" height="170" as="geometry" />
        </mxCell>
        <mxCell id="-D0VRMOkzKC7TL6TW5ba-143" value="" style="shape=tableRow;horizontal=0;startSize=0;swimlaneHead=0;swimlaneBody=0;fillColor=none;collapsible=0;dropTarget=0;points=[[0,0.5],[1,0.5]];portConstraint=eastwest;top=0;left=0;right=0;bottom=1;" vertex="1" parent="-D0VRMOkzKC7TL6TW5ba-142">
          <mxGeometry y="30" width="180" height="30" as="geometry" />
        </mxCell>
        <mxCell id="-D0VRMOkzKC7TL6TW5ba-144" value="PK" style="shape=partialRectangle;connectable=0;fillColor=none;top=0;left=0;bottom=0;right=0;fontStyle=1;overflow=hidden;whiteSpace=wrap;html=1;" vertex="1" parent="-D0VRMOkzKC7TL6TW5ba-143">
          <mxGeometry width="30" height="30" as="geometry">
            <mxRectangle width="30" height="30" as="alternateBounds" />
          </mxGeometry>
        </mxCell>
        <mxCell id="-D0VRMOkzKC7TL6TW5ba-145" value="Autor-ID" style="shape=partialRectangle;connectable=0;fillColor=none;top=0;left=0;bottom=0;right=0;align=left;spacingLeft=6;fontStyle=5;overflow=hidden;whiteSpace=wrap;html=1;" vertex="1" parent="-D0VRMOkzKC7TL6TW5ba-143">
          <mxGeometry x="30" width="150" height="30" as="geometry">
            <mxRectangle width="150" height="30" as="alternateBounds" />
          </mxGeometry>
        </mxCell>
        <mxCell id="-D0VRMOkzKC7TL6TW5ba-146" value="" style="shape=tableRow;horizontal=0;startSize=0;swimlaneHead=0;swimlaneBody=0;fillColor=none;collapsible=0;dropTarget=0;points=[[0,0.5],[1,0.5]];portConstraint=eastwest;top=0;left=0;right=0;bottom=0;" vertex="1" parent="-D0VRMOkzKC7TL6TW5ba-142">
          <mxGeometry y="60" width="180" height="90" as="geometry" />
        </mxCell>
        <mxCell id="-D0VRMOkzKC7TL6TW5ba-147" value="" style="shape=partialRectangle;connectable=0;fillColor=none;top=0;left=0;bottom=0;right=0;editable=1;overflow=hidden;whiteSpace=wrap;html=1;" vertex="1" parent="-D0VRMOkzKC7TL6TW5ba-146">
          <mxGeometry width="30" height="90" as="geometry">
            <mxRectangle width="30" height="90" as="alternateBounds" />
          </mxGeometry>
        </mxCell>
        <mxCell id="-D0VRMOkzKC7TL6TW5ba-148" value="+ Name&lt;div&gt;+ Vorname&lt;/div&gt;&lt;div&gt;+ Herkunft&lt;/div&gt;" style="shape=partialRectangle;connectable=0;fillColor=none;top=0;left=0;bottom=0;right=0;align=left;spacingLeft=6;overflow=hidden;whiteSpace=wrap;html=1;" vertex="1" parent="-D0VRMOkzKC7TL6TW5ba-146">
          <mxGeometry x="30" width="150" height="90" as="geometry">
            <mxRectangle width="150" height="90" as="alternateBounds" />
          </mxGeometry>
        </mxCell>
        <mxCell id="-D0VRMOkzKC7TL6TW5ba-149" value="" style="shape=tableRow;horizontal=0;startSize=0;swimlaneHead=0;swimlaneBody=0;fillColor=none;collapsible=0;dropTarget=0;points=[[0,0.5],[1,0.5]];portConstraint=eastwest;top=0;left=0;right=0;bottom=0;" vertex="1" parent="-D0VRMOkzKC7TL6TW5ba-142">
          <mxGeometry y="150" width="180" height="20" as="geometry" />
        </mxCell>
        <mxCell id="-D0VRMOkzKC7TL6TW5ba-150" value="" style="shape=partialRectangle;connectable=0;fillColor=none;top=0;left=0;bottom=0;right=0;editable=1;overflow=hidden;whiteSpace=wrap;html=1;" vertex="1" parent="-D0VRMOkzKC7TL6TW5ba-149">
          <mxGeometry width="30" height="20" as="geometry">
            <mxRectangle width="30" height="20" as="alternateBounds" />
          </mxGeometry>
        </mxCell>
        <mxCell id="-D0VRMOkzKC7TL6TW5ba-151" value="" style="shape=partialRectangle;connectable=0;fillColor=none;top=0;left=0;bottom=0;right=0;align=left;spacingLeft=6;overflow=hidden;whiteSpace=wrap;html=1;" vertex="1" parent="-D0VRMOkzKC7TL6TW5ba-149">
          <mxGeometry x="30" width="150" height="20" as="geometry">
            <mxRectangle width="150" height="20" as="alternateBounds" />
          </mxGeometry>
        </mxCell>
        <mxCell id="-D0VRMOkzKC7TL6TW5ba-155" value="" style="edgeStyle=entityRelationEdgeStyle;fontSize=12;html=1;endArrow=ERmany;rounded=0;entryX=0;entryY=0.5;entryDx=0;entryDy=0;exitX=1.002;exitY=0.742;exitDx=0;exitDy=0;exitPerimeter=0;" edge="1" parent="1" source="-D0VRMOkzKC7TL6TW5ba-64" target="lfR97x9AHYAny6RsblMl-5">
          <mxGeometry width="100" height="100" relative="1" as="geometry">
            <mxPoint x="1190" y="337" as="sourcePoint" />
            <mxPoint x="880" y="397.49999999999955" as="targetPoint" />
          </mxGeometry>
        </mxCell>
        <mxCell id="lfR97x9AHYAny6RsblMl-1" value="Bewertung" style="shape=table;startSize=30;container=1;collapsible=1;childLayout=tableLayout;fixedRows=1;rowLines=0;fontStyle=1;align=center;resizeLast=1;html=1;whiteSpace=wrap;" vertex="1" parent="1">
          <mxGeometry x="875" y="340" width="180" height="130.0000000000009" as="geometry" />
        </mxCell>
        <mxCell id="lfR97x9AHYAny6RsblMl-2" value="" style="shape=tableRow;horizontal=0;startSize=0;swimlaneHead=0;swimlaneBody=0;fillColor=none;collapsible=0;dropTarget=0;points=[[0,0.5],[1,0.5]];portConstraint=eastwest;top=0;left=0;right=0;bottom=0;html=1;" vertex="1" parent="lfR97x9AHYAny6RsblMl-1">
          <mxGeometry y="30" width="180" height="30" as="geometry" />
        </mxCell>
        <mxCell id="lfR97x9AHYAny6RsblMl-3" value="PK,FK1" style="shape=partialRectangle;connectable=0;fillColor=none;top=0;left=0;bottom=0;right=0;fontStyle=1;overflow=hidden;html=1;whiteSpace=wrap;" vertex="1" parent="lfR97x9AHYAny6RsblMl-2">
          <mxGeometry width="60" height="30" as="geometry">
            <mxRectangle width="60" height="30" as="alternateBounds" />
          </mxGeometry>
        </mxCell>
        <mxCell id="lfR97x9AHYAny6RsblMl-4" value="Kunden-ID" style="shape=partialRectangle;connectable=0;fillColor=none;top=0;left=0;bottom=0;right=0;align=left;spacingLeft=6;fontStyle=5;overflow=hidden;html=1;whiteSpace=wrap;" vertex="1" parent="lfR97x9AHYAny6RsblMl-2">
          <mxGeometry x="60" width="120" height="30" as="geometry">
            <mxRectangle width="120" height="30" as="alternateBounds" />
          </mxGeometry>
        </mxCell>
        <mxCell id="lfR97x9AHYAny6RsblMl-5" value="" style="shape=tableRow;horizontal=0;startSize=0;swimlaneHead=0;swimlaneBody=0;fillColor=none;collapsible=0;dropTarget=0;points=[[0,0.5],[1,0.5]];portConstraint=eastwest;top=0;left=0;right=0;bottom=1;html=1;" vertex="1" parent="lfR97x9AHYAny6RsblMl-1">
          <mxGeometry y="60" width="180" height="30" as="geometry" />
        </mxCell>
        <mxCell id="lfR97x9AHYAny6RsblMl-6" value="PK,FK2" style="shape=partialRectangle;connectable=0;fillColor=none;top=0;left=0;bottom=0;right=0;fontStyle=1;overflow=hidden;html=1;whiteSpace=wrap;" vertex="1" parent="lfR97x9AHYAny6RsblMl-5">
          <mxGeometry width="60" height="30" as="geometry">
            <mxRectangle width="60" height="30" as="alternateBounds" />
          </mxGeometry>
        </mxCell>
        <mxCell id="lfR97x9AHYAny6RsblMl-7" value="Buch-ID" style="shape=partialRectangle;connectable=0;fillColor=none;top=0;left=0;bottom=0;right=0;align=left;spacingLeft=6;fontStyle=5;overflow=hidden;html=1;whiteSpace=wrap;" vertex="1" parent="lfR97x9AHYAny6RsblMl-5">
          <mxGeometry x="60" width="120" height="30" as="geometry">
            <mxRectangle width="120" height="30" as="alternateBounds" />
          </mxGeometry>
        </mxCell>
        <mxCell id="lfR97x9AHYAny6RsblMl-8" value="" style="shape=tableRow;horizontal=0;startSize=0;swimlaneHead=0;swimlaneBody=0;fillColor=none;collapsible=0;dropTarget=0;points=[[0,0.5],[1,0.5]];portConstraint=eastwest;top=0;left=0;right=0;bottom=0;html=1;" vertex="1" parent="lfR97x9AHYAny6RsblMl-1">
          <mxGeometry y="90" width="180" height="40" as="geometry" />
        </mxCell>
        <mxCell id="lfR97x9AHYAny6RsblMl-9" value="" style="shape=partialRectangle;connectable=0;fillColor=none;top=0;left=0;bottom=0;right=0;editable=1;overflow=hidden;html=1;whiteSpace=wrap;" vertex="1" parent="lfR97x9AHYAny6RsblMl-8">
          <mxGeometry width="60" height="40" as="geometry">
            <mxRectangle width="60" height="40" as="alternateBounds" />
          </mxGeometry>
        </mxCell>
        <mxCell id="lfR97x9AHYAny6RsblMl-10" value="+Wertung: Int&lt;div&gt;+Rezension: String&lt;/div&gt;" style="shape=partialRectangle;connectable=0;fillColor=none;top=0;left=0;bottom=0;right=0;align=left;spacingLeft=6;overflow=hidden;html=1;whiteSpace=wrap;" vertex="1" parent="lfR97x9AHYAny6RsblMl-8">
          <mxGeometry x="60" width="120" height="40" as="geometry">
            <mxRectangle width="120" height="40" as="alternateBounds" />
          </mxGeometry>
        </mxCell>
        <mxCell id="lfR97x9AHYAny6RsblMl-14" value="Leihe" style="shape=table;startSize=20;container=1;collapsible=1;childLayout=tableLayout;fixedRows=1;rowLines=0;fontStyle=1;align=center;resizeLast=1;html=1;" vertex="1" parent="1">
          <mxGeometry x="860" y="40" width="180" height="190" as="geometry" />
        </mxCell>
        <mxCell id="lfR97x9AHYAny6RsblMl-15" value="" style="shape=tableRow;horizontal=0;startSize=0;swimlaneHead=0;swimlaneBody=0;fillColor=none;collapsible=0;dropTarget=0;points=[[0,0.5],[1,0.5]];portConstraint=eastwest;top=0;left=0;right=0;bottom=1;" vertex="1" parent="lfR97x9AHYAny6RsblMl-14">
          <mxGeometry y="20" width="180" height="30" as="geometry" />
        </mxCell>
        <mxCell id="lfR97x9AHYAny6RsblMl-16" value="PK" style="shape=partialRectangle;connectable=0;fillColor=none;top=0;left=0;bottom=0;right=0;fontStyle=1;overflow=hidden;whiteSpace=wrap;html=1;" vertex="1" parent="lfR97x9AHYAny6RsblMl-15">
          <mxGeometry width="30" height="30" as="geometry">
            <mxRectangle width="30" height="30" as="alternateBounds" />
          </mxGeometry>
        </mxCell>
        <mxCell id="lfR97x9AHYAny6RsblMl-17" value="Leih-ID" style="shape=partialRectangle;connectable=0;fillColor=none;top=0;left=0;bottom=0;right=0;align=left;spacingLeft=6;fontStyle=5;overflow=hidden;whiteSpace=wrap;html=1;" vertex="1" parent="lfR97x9AHYAny6RsblMl-15">
          <mxGeometry x="30" width="150" height="30" as="geometry">
            <mxRectangle width="150" height="30" as="alternateBounds" />
          </mxGeometry>
        </mxCell>
        <mxCell id="lfR97x9AHYAny6RsblMl-18" value="" style="shape=tableRow;horizontal=0;startSize=0;swimlaneHead=0;swimlaneBody=0;fillColor=none;collapsible=0;dropTarget=0;points=[[0,0.5],[1,0.5]];portConstraint=eastwest;top=0;left=0;right=0;bottom=0;" vertex="1" parent="lfR97x9AHYAny6RsblMl-14">
          <mxGeometry y="50" width="180" height="50" as="geometry" />
        </mxCell>
        <mxCell id="lfR97x9AHYAny6RsblMl-19" value="FK&lt;div&gt;FK&lt;/div&gt;" style="shape=partialRectangle;connectable=0;fillColor=none;top=0;left=0;bottom=0;right=0;editable=1;overflow=hidden;whiteSpace=wrap;html=1;" vertex="1" parent="lfR97x9AHYAny6RsblMl-18">
          <mxGeometry width="30" height="50" as="geometry">
            <mxRectangle width="30" height="50" as="alternateBounds" />
          </mxGeometry>
        </mxCell>
        <mxCell id="lfR97x9AHYAny6RsblMl-20" value="Kunden-ID&lt;div&gt;Exemplar-ID&lt;/div&gt;" style="shape=partialRectangle;connectable=0;fillColor=none;top=0;left=0;bottom=0;right=0;align=left;spacingLeft=6;overflow=hidden;whiteSpace=wrap;html=1;" vertex="1" parent="lfR97x9AHYAny6RsblMl-18">
          <mxGeometry x="30" width="150" height="50" as="geometry">
            <mxRectangle width="150" height="50" as="alternateBounds" />
          </mxGeometry>
        </mxCell>
        <mxCell id="lfR97x9AHYAny6RsblMl-21" value="" style="shape=tableRow;horizontal=0;startSize=0;swimlaneHead=0;swimlaneBody=0;fillColor=none;collapsible=0;dropTarget=0;points=[[0,0.5],[1,0.5]];portConstraint=eastwest;top=0;left=0;right=0;bottom=0;" vertex="1" parent="lfR97x9AHYAny6RsblMl-14">
          <mxGeometry y="100" width="180" height="80" as="geometry" />
        </mxCell>
        <mxCell id="lfR97x9AHYAny6RsblMl-22" value="" style="shape=partialRectangle;connectable=0;fillColor=none;top=0;left=0;bottom=0;right=0;editable=1;overflow=hidden;whiteSpace=wrap;html=1;" vertex="1" parent="lfR97x9AHYAny6RsblMl-21">
          <mxGeometry width="30" height="80" as="geometry">
            <mxRectangle width="30" height="80" as="alternateBounds" />
          </mxGeometry>
        </mxCell>
        <mxCell id="lfR97x9AHYAny6RsblMl-23" value="&lt;div style=&quot;text-wrap: nowrap;&quot;&gt;+Ausleihdatum: Date&lt;/div&gt;&lt;div style=&quot;text-wrap: nowrap;&quot;&gt;+RÃ¼ckabedatum: Date&lt;br&gt;&lt;/div&gt;&lt;div style=&quot;text-wrap: nowrap;&quot;&gt;+VerlÃ¤ngerungsstatus: Int&lt;/div&gt;&lt;div style=&quot;text-wrap: nowrap;&quot;&gt;+Mahnstatus: Int&lt;/div&gt;&lt;div style=&quot;text-wrap: nowrap;&quot;&gt;+Fernleihe: bool&lt;/div&gt;" style="shape=partialRectangle;connectable=0;fillColor=none;top=0;left=0;bottom=0;right=0;align=left;spacingLeft=6;overflow=hidden;whiteSpace=wrap;html=1;" vertex="1" parent="lfR97x9AHYAny6RsblMl-21">
          <mxGeometry x="30" width="150" height="80" as="geometry">
            <mxRectangle width="150" height="80" as="alternateBounds" />
          </mxGeometry>
        </mxCell>
        <mxCell id="lfR97x9AHYAny6RsblMl-27" value="Exemplar" style="shape=table;startSize=20;container=1;collapsible=1;childLayout=tableLayout;fixedRows=1;rowLines=0;fontStyle=1;align=center;resizeLast=1;html=1;" vertex="1" parent="1">
          <mxGeometry x="1180" y="-30" width="180" height="150" as="geometry" />
        </mxCell>
        <mxCell id="lfR97x9AHYAny6RsblMl-28" value="" style="shape=tableRow;horizontal=0;startSize=0;swimlaneHead=0;swimlaneBody=0;fillColor=none;collapsible=0;dropTarget=0;points=[[0,0.5],[1,0.5]];portConstraint=eastwest;top=0;left=0;right=0;bottom=1;" vertex="1" parent="lfR97x9AHYAny6RsblMl-27">
          <mxGeometry y="20" width="180" height="30" as="geometry" />
        </mxCell>
        <mxCell id="lfR97x9AHYAny6RsblMl-29" value="PK" style="shape=partialRectangle;connectable=0;fillColor=none;top=0;left=0;bottom=0;right=0;fontStyle=1;overflow=hidden;whiteSpace=wrap;html=1;" vertex="1" parent="lfR97x9AHYAny6RsblMl-28">
          <mxGeometry width="30" height="30" as="geometry">
            <mxRectangle width="30" height="30" as="alternateBounds" />
          </mxGeometry>
        </mxCell>
        <mxCell id="lfR97x9AHYAny6RsblMl-30" value="Exemplar-ID" style="shape=partialRectangle;connectable=0;fillColor=none;top=0;left=0;bottom=0;right=0;align=left;spacingLeft=6;fontStyle=5;overflow=hidden;whiteSpace=wrap;html=1;" vertex="1" parent="lfR97x9AHYAny6RsblMl-28">
          <mxGeometry x="30" width="150" height="30" as="geometry">
            <mxRectangle width="150" height="30" as="alternateBounds" />
          </mxGeometry>
        </mxCell>
        <mxCell id="lfR97x9AHYAny6RsblMl-31" value="" style="shape=tableRow;horizontal=0;startSize=0;swimlaneHead=0;swimlaneBody=0;fillColor=none;collapsible=0;dropTarget=0;points=[[0,0.5],[1,0.5]];portConstraint=eastwest;top=0;left=0;right=0;bottom=0;" vertex="1" parent="lfR97x9AHYAny6RsblMl-27">
          <mxGeometry y="50" width="180" height="30" as="geometry" />
        </mxCell>
        <mxCell id="lfR97x9AHYAny6RsblMl-32" value="FK" style="shape=partialRectangle;connectable=0;fillColor=none;top=0;left=0;bottom=0;right=0;editable=1;overflow=hidden;whiteSpace=wrap;html=1;" vertex="1" parent="lfR97x9AHYAny6RsblMl-31">
          <mxGeometry width="30" height="30" as="geometry">
            <mxRectangle width="30" height="30" as="alternateBounds" />
          </mxGeometry>
        </mxCell>
        <mxCell id="lfR97x9AHYAny6RsblMl-33" value="Buch-ID" style="shape=partialRectangle;connectable=0;fillColor=none;top=0;left=0;bottom=0;right=0;align=left;spacingLeft=6;overflow=hidden;whiteSpace=wrap;html=1;" vertex="1" parent="lfR97x9AHYAny6RsblMl-31">
          <mxGeometry x="30" width="150" height="30" as="geometry">
            <mxRectangle width="150" height="30" as="alternateBounds" />
          </mxGeometry>
        </mxCell>
        <mxCell id="lfR97x9AHYAny6RsblMl-34" value="" style="shape=tableRow;horizontal=0;startSize=0;swimlaneHead=0;swimlaneBody=0;fillColor=none;collapsible=0;dropTarget=0;points=[[0,0.5],[1,0.5]];portConstraint=eastwest;top=0;left=0;right=0;bottom=0;" vertex="1" parent="lfR97x9AHYAny6RsblMl-27">
          <mxGeometry y="80" width="180" height="60" as="geometry" />
        </mxCell>
        <mxCell id="lfR97x9AHYAny6RsblMl-35" value="" style="shape=partialRectangle;connectable=0;fillColor=none;top=0;left=0;bottom=0;right=0;editable=1;overflow=hidden;whiteSpace=wrap;html=1;" vertex="1" parent="lfR97x9AHYAny6RsblMl-34">
          <mxGeometry width="30" height="60" as="geometry">
            <mxRectangle width="30" height="60" as="alternateBounds" />
          </mxGeometry>
        </mxCell>
        <mxCell id="lfR97x9AHYAny6RsblMl-36" value="&lt;div style=&quot;text-wrap: nowrap;&quot;&gt;+Kennung&lt;div&gt;+Zugriffsort&lt;/div&gt;&lt;div&gt;+Zustand&lt;/div&gt;&lt;/div&gt;" style="shape=partialRectangle;connectable=0;fillColor=none;top=0;left=0;bottom=0;right=0;align=left;spacingLeft=6;overflow=hidden;whiteSpace=wrap;html=1;" vertex="1" parent="lfR97x9AHYAny6RsblMl-34">
          <mxGeometry x="30" width="150" height="60" as="geometry">
            <mxRectangle width="150" height="60" as="alternateBounds" />
          </mxGeometry>
        </mxCell>
      </root>
    </mxGraphModel>
  </diagram>
</mxfile>
